<svg xmlns="http://www.w3.org/2000/svg" viewBox="0 0 2048 521">
  <path fill="#404043" d="M292 29h6l22 13 27 16 20 12 17 10 22 13 15 9 17 10 44 26 15 9 17 10 5 6v194l-4 6-13 8-19 11-17 10-35 21-27 16-14 8-25 15-13 8-11 6-15 9-27 16h-9l-10-6-27-16-29-17-10-6-17-10-25-15-17-10-27-16-29-17-25-15-3-4V162l4-5 26-15 15-9 49-29 44-26 15-9 66-39zm2 107-21 12-41 24-20 12-27 16-17 10-6 4v86l28-16 24-14 6-3 1-38 3-5 10-7 18-10 13-8 25-15h9l29 17 34 20 5 4 1 2 1 39 15 9 26 15 15 9h2l1-12v-73l-22-13-27-16-29-17-27-16-24-14z"/>
  <path fill="#414143" d="M292 29h6l22 13 27 16 20 12 17 10 22 13 15 9 17 10 44 26 15 9 17 10 5 6v194l-4 6-13 8-19 11-17 10-35 21-27 16-14 8-25 15-13 8-11 6-15 9-27 16h-9l-10-6-27-16-29-17-10-6-17-10-25-15-17-10-27-16-29-17-25-15-3-4V162l4-5 26-15 15-9 49-29 44-26 15-9 66-39zm0 7-28 17-24 14-25 15-29 17-25 15-29 17-27 16-24 14-4 3v192l4 4 26 15 29 17 39 23 22 13 25 15 24 14 22 13 25 15 5-1 24-14 28-17 23-13 13-8 29-17 28-17 26-15 20-12 17-10 4-4v-2l-24-14-22-13-15-9-13-8-6-1-4-4-16-9-15-9-26-15-5-3-1-39-5-5-13-8-29-17-20-12-6 2-29 17-20 12-12 7 1 4 25 15 16 9 15 9 7 4 1 3v119l-12-6-44-26-11-7-1-80-6 2-53 31-8 5-4 1 1-99 16-10 29-17 27-16 61-36 4-2 6 1 25 15 24 14 29 17 15 9 22 13 13 8 9 3 20-12 44-26 10-6-2-5-58-34-25-15-22-13-27-16-29-17-50-30zm2 100-21 12-41 24-20 12-27 16-17 10-6 4v86l28-16 24-14 6-3 1-38 3-5 10-7 18-10 13-8 25-15h9l29 17 34 20 5 4 1 2 1 39 15 9 26 15 15 9h2l1-12v-73l-22-13-27-16-29-17-27-16-24-14z"/>
  <path fill="#262425" d="m292 36 7 1 25 15 32 19 28 17 21 12 20 12 29 17 15 9 29 17 10 6 2 5-27 16-29 17-18 11-10-4-26-15-25-15-58-34-20-12-6 1-16 9-15 9-44 26-29 17-25 15-8 3-19-11-17-10-39-23 1-3 4-2 4-4 26-15 20-12 29-17 15-9 27-16 22-13 15-9 29-17zM1840 168h57l5 8 14 30 10 22 7 14 8 17 1-88 3-3h43l3 2v180l-2 2-4 1h-47l-5-2-8-16-10-22-8-16-13-28-7-15-1 95-2 3-3 1h-38l-5-2-1-1V171z"/>
  <path fill="#262526" d="M982 168h57l5 8 13 27 12 26 10 22 5 10 1-91 2-2h44l2 2v180l-5 3h-48l-5-2-14-29-13-28-11-24-8-16-1 96-5 3h-38l-5-2-1-2V171z"/>
  <path fill="#262425" d="M848 164h43l19 5 16 8 11 8 10 10 10 15 7 17 3 12 1 9v25l-3 17-6 16-8 14-12 13-8 7-13 8-17 6-16 3h-31l-20-4-16-7-11-7-10-9-8-9-8-14-5-12-4-17-1-6v-26l4-19 6-15 9-14 9-10 9-8 14-8 13-5zm18 40-15 4-10 6-8 7-7 11-5 15-1 13 2 16 5 13 7 11 9 8 13 6 8 2h11l11-3 10-5 10-9 7-11 5-14 1-8v-12l-2-11-5-13-8-11-10-8-11-5-10-2zM561 168h84l14 3 12 6 10 9 4 5 5 10 2 9v16l-3 12-7 11-7 6 1 3 9 7 7 11 3 9 1 6v15l-3 13-7 12-5 6-10 7-11 5-12 3-12 1h-72l-5-2-1-2V171zm46 40v32h25l6-3 4-6 1-9-3-9-4-4-2-1zm0 70v35h27l7-3 4-7 1-4v-7l-3-8-4-4-8-2zM364 271l5 2 23 13 28 17 9 5 1 2 7 2 19 11 25 15 29 17-1 3-6 5-21 12-54 32-25 15-24 14-15 9-29 17-35 21-5 1v-92l13-8 53-31 3-1zM1216 168h50l6 9 11 19 10 17 3 4 15-26 9-15 4-7 2-1h49l2 3v5l-50 80 2 5 16 26 14 23 16 26 5 8v6l-5 3h-43l-5-2-15-25-14-24-3-5-5 8-14 24-13 22-4 2h-44l-4-2-1-6 13-22 15-24 17-28 8-13-2-6-12-19-32-52-4-7 2-5zM1717 168h53l3 3 26 79 16 50 15 46-1 5-5 2h-40l-5-4-11-35v-2h-51l-2 9-9 28-5 4h-39l-5-3-1-3 18-55 18-54 14-43 9-26zm25 65-8 24-5 17h27l-8-27-4-13z"/>
  <path fill="#262425" d="M1439 165h22l17 3 12 4 9 6 1 7-7 28-3 4h-12l-10-6-9-3-6-1h-10l-11 4-3 4v10l5 5 19 9 23 10 13 9v2l4 2v2h2l6 10 3 9 1 6v15l-3 14-6 12-9 10-10 7-12 5-14 3h-31l-18-4-12-5-8-6-1-2v-35l3-4h12l13 8 15 5 5 1h13l10-3 2-5v-10l-4-5-14-7-30-13-11-7-7-7-6-10-4-16v-15l3-12 5-10 8-10 8-6 16-8 13-3zM1601 165h17l17 2 18 6 6 5v7l-7 27-2 4-5 1h-7l-10-5-12-3h-18l-18 6-10 7h-2l-2 4-6 10-3 9-1 7v12l2 12 5 12 7 9 10 8 15 6 11 2h13l12-3 15-6 3 1 4-1 4 3v37l-7 5-18 5-7 1h-33l-20-4-16-6-16-9-5-4v-2l-4-2-8-9-7-11-5-11-4-15-1-7v-31l3-15 6-15 7-11 11-12 3-1v-2l14-9 10-5 11-4 21-4z"/>
  <path fill="#4E4DAA" d="m293 129 6 1 25 15 24 14 29 17 15 9 22 13 18 11 2 2v99l-5-1-53-31-13-8-1-39-5-5-24-14-22-13-15-9-6 2-29 17-30 18h-2l1 3 25 15 16 9 15 9 8 5 1 3v119l-2 1-23-13-25-15-17-10-2-2v-80l-18 10-27 16-22 13h-4v-99l10-7 26-15 25-15 24-14 15-9 29-17zm1 7-21 12-41 24-20 12-27 16-17 10-6 4v86l28-16 24-14 6-3 1-38 3-5 10-7 18-10 13-8 25-15h9l29 17 34 20 5 4 1 2 1 39 15 9 26 15 15 9h2l1-12v-73l-22-13-27-16-29-17-27-16-24-14z"/>
  <path fill="#2B317D" d="m294 189 6 2 16 10 26 15 18 11 3 4 1 39 1 80-4 4-26 15-22 13-17 10-2-2V271l-1-3-21-12-15-9-24-14-4-3v-3l26-15 35-21z"/>
  <path fill="#FEFEFE" d="M292 29h6l22 13 27 16 20 12 17 10 22 13 15 9 17 10 44 26 15 9 17 10 5 6v194l-4 6-13 8-19 11-17 10-35 21-27 16-14 8-25 15-13 8-11 6-15 9-27 16h-9l-10-6-27-16-29-17-10-6-17-10-25-15-17-10-27-16-29-17-25-15-3-4V162l4-5 26-15 15-9 49-29 44-26 15-9 66-39zm0 7-28 17-24 14-25 15-29 17-25 15-29 17-27 16-24 14-4 3v192l4 4 26 15 29 17 39 23 22 13 25 15 24 14 22 13 25 15 5-1 24-14 28-17 23-13 13-8 29-17 28-17 26-15 20-12 21-12 2-2 1-183-1-10-9-6-24-14-29-17-25-15-22-13-27-16-29-17-50-30z"/>
  <path fill="#262425" d="M713 168h44l2 2v180l-2 2-4 1h-38l-4-2-1-2V171zM1158 168h43l3 3v178l-2 3-4 1h-38l-4-2-1-2V171z"/>
  <path fill="#FEFEFE" d="m293 129 6 1 25 15 24 14 29 17 15 9 22 13 18 11 2 2v99l-5-1-53-31-13-8-1-39-5-5-24-14-22-13-15-9-6 2-29 17-20 12-13 8-1 41-48 28-20 12h-4v-99l10-7 26-15 25-15 24-14 15-9 29-17zm1 7-21 12-41 24-20 12-27 16-17 10-6 4v86l28-16 24-14 6-3 1-38 3-5 10-7 18-10 13-8 25-15h9l29 17 34 20 5 4 1 2 1 39 15 9 26 15 15 9h2l1-12v-73l-22-13-27-16-29-17-27-16-24-14z"/>
  <path fill="#393798" d="m294 189 6 2 16 10 26 15 18 11 2 3-11 6-19 11-28 17-7 4h-2l-1 3-1-3-21-12-15-9-24-14-4-3v-3l26-15 35-21z"/>
  <path fill="#FEFEFE" d="M1840 168h57l5 8 14 30 10 22 7 14 8 17 1-88 3-3h43l3 2v180l-2 2-4 1h-47l-5-2-8-16-10-22-8-16-13-28-7-15-1 95-2 3-3 1h-38l-5-2-1-1V171zm2 5v175h39l1-116 13 27 13 28 17 36 11 24 1 1h49V173h-39l-1 109-13-28-17-36-16-34-5-11zM982 168h57l5 8 13 27 12 26 10 22 5 10 1-91 2-2h44l2 2v180l-5 3h-48l-5-2-14-29-13-28-11-24-8-16-1 96-5 3h-38l-5-2-1-2V171zm2 5v175h39l1-117 14 30 34 72 7 15h49l1-1V173h-40l-1 108-12-25-13-28-16-34-10-21zM1216 168h50l6 9 11 19 10 17 3 4 15-26 9-15 4-7 2-1h49l2 3v5l-50 80 2 5 16 26 14 23 16 26 5 8v6l-5 3h-43l-5-2-15-25-14-24-3-5-5 8-14 24-13 22-4 2h-44l-4-2-1-6 13-22 15-24 17-28 8-13-2-6-12-19-32-52-4-7 2-5zm3 5 2 5 12 20 15 24 17 28 4 6-2 5-17 28-13 21-16 26-6 10v2h44l9-15 16-28 10-17 2-1 2 6 9 15 13 22 11 18h44l-1-4-13-22-12-19-17-28-10-16 1-6 12-19 13-21 15-24 9-15v-1h-44l-8 13-13 22-11 18-4-5-15-26-13-22z"/>
  <path fill="#FEFEFE" d="M1439 165h22l17 3 12 4 9 6 1 7-7 28-3 4h-12l-10-6-9-3-6-1h-10l-11 4-3 4v10l5 5 19 9 23 10 13 9v2l4 2v2h2l6 10 3 9 1 6v15l-3 14-6 12-9 10-10 7-12 5-14 3h-31l-18-4-12-5-8-6-1-2v-35l3-4h12l13 8 15 5 5 1h13l10-3 2-5v-10l-4-5-14-7-30-13-11-7-7-7-6-10-4-16v-15l3-12 5-10 8-10 8-6 16-8 13-3zm-1 5-16 3-12 5-11 7-8 9-6 12-2 9v16l3 12 6 10 10 9 16 8 32 14 7 6 2 4v11l-3 6-5 4-8 3h-14l-15-4-12-5-7-5h-2v3l-5-3h-2v33l9 6 14 5 11 2h31l16-4 14-7 9-9 6-10 4-16v-15l-3-12-6-10-7-7-13-8-32-14-11-6-3-4-1-3v-10l3-6 8-5 8-2h10l13 3 12 6 4 1 1-2 5 2 7-28v-3l-14-7-12-3-7-1z"/>
  <path fill="#262425" d="M152 312h4v89l-7-1-25-15-26-15-18-11-1-4 9-5 49-29z"/>
  <path fill="#FEFEFE" d="M1601 165h17l17 2 18 6 6 5v7l-7 27-2 4-5 1h-7l-10-5-12-3h-18l-18 6-10 7h-2l-2 4-6 10-3 9-1 7v12l2 12 5 12 7 9 10 8 15 6 11 2h13l12-3 15-6 3 1 4-1 4 3v37l-7 5-18 5-7 1h-33l-20-4-16-6-16-9-5-4v-2l-4-2-8-9-7-11-5-11-4-15-1-7v-31l3-15 6-15 7-11 11-12 3-1v-2l14-9 10-5 11-4 21-4zm0 5-22 3-18 6-15 8-10 8-9 9-8 13-5 13-3 12-1 10v15l2 16 5 16 8 15 12 13 12 9 17 8 13 4 13 2h33l16-3 10-4 2-2v-31l-5 1-2 1-1-3-10 5-16 4h-13l-15-3-12-5-11-8-7-8-7-14-2-8-1-9v-11l3-14 6-12 7-8 12-8 15-5 5-1h17l12 3 9 4 3 1 2-2 5 2 7-28-1-5-8-4-16-4-10-1z"/>
  <path fill="#FEFEFE" d="M1717 168h53l3 3 26 79 16 50 15 46-1 5-5 2h-40l-5-4-11-35v-2h-51l-2 9-9 28-5 4h-39l-5-3-1-3 18-55 18-54 14-43 9-26zm2 5-5 14-31 93-14 43-7 21v4h39l10-31 2-9h59l2 9 9 29 1 2h40l1-2-19-58-14-43-18-55-5-16-1-1zM848 164h43l19 5 16 8 11 8 10 10 10 15 7 17 3 12 1 9v25l-3 17-6 16-8 14-12 13-8 7-13 8-17 6-16 3h-31l-20-4-16-7-11-7-10-9-8-9-8-14-5-12-4-17-1-6v-26l4-19 6-15 9-14 9-10 9-8 14-8 13-5zm8 4-16 3-10 3-16 8-10 8-8 8-7 10-7 14-5 17-1 6v28l3 15 4 12 8 15 7 9 10 10 11 7 15 7 20 4h31l20-4 19-9 10-8 10-10 9-14 6-15 4-17 1-16-2-20-5-17-8-16-8-10-9-9-14-9-11-5-16-4-8-1zM561 168h84l14 3 12 6 10 9 4 5 5 10 2 9v16l-3 12-7 11-7 6 1 3 9 7 7 11 3 9 1 6v15l-3 13-7 12-5 6-10 7-11 5-12 3-12 1h-72l-5-2-1-2V171zm2 5v175h74l16-2 13-5 11-7 8-10 5-12 1-4v-19l-4-12-6-9-10-8-7-3 12-9 7-9 3-7 1-5v-18l-4-11-5-8-8-8-14-7-9-2z"/>
  <path fill="#262425" d="M223 273h1v77l-11-6-44-26-10-6 1-4 16-9 22-13 12-7 10-4z"/>
  <path fill="#FEFEFE" d="M713 168h44l2 2v180l-2 2-4 1h-38l-4-2-1-2V171zm2 5v174l1 1h38V173zM1158 168h43l3 3v178l-2 3-4 1h-38l-4-2-1-2V171zm2 5v175h39V173zM861 200h17l13 4 10 6 9 8 8 13 4 11 2 13v11l-3 15-5 12-8 11-9 8-12 6-13 3h-9l-12-3-9-4-11-8-8-10-6-13-3-12v-23l3-12 6-12 8-10 11-8 12-5zm5 4-15 4-10 6-8 7-7 11-5 15-1 13 2 16 5 13 7 11 9 8 13 6 8 2h11l11-3 10-5 10-9 7-11 5-14 1-8v-12l-2-11-5-13-8-11-10-8-11-5-10-2zM602 273h28l10 2 7 6 3 6 1 9-2 10-4 6-5 4-6 2h-32zm5 5v35h27l7-3 4-7 1-4v-7l-3-8-4-4-8-2zM1742 216l2 2 18 58v3h-39l2-9zm0 17-8 24-5 17h27l-8-27-4-13zM602 203h32l6 3 6 7 2 9-1 9-4 8-7 5-4 1h-30zm5 5v32h25l6-3 4-6 1-9-3-9-4-4-2-1z"/>
</svg>
