<svg xmlns="http://www.w3.org/2000/svg" viewBox="0 0 2048 521">
  <path fill="#404042" d="M292 29h6l22 13 27 16 20 12 17 10 22 13 15 9 17 10 44 26 15 9 17 10 5 6v194l-4 6-13 8-19 11-17 10-35 21-27 16-14 8-25 15-13 8-11 6-15 9-27 16h-9l-10-6-27-16-29-17-10-6-17-10-25-15-17-10-27-16-29-17-25-15-3-4V162l4-5 26-15 15-9 49-29 44-26 15-9 66-39zm2 107-21 12-41 24-20 12-27 16-17 10-6 4v86l28-16 24-14 6-3 1-38 3-5 10-7 18-10 13-8 25-15h9l29 17 34 20 5 4 1 2 1 39 15 9 26 15 15 9h2l1-12v-73l-22-13-27-16-29-17-27-16-24-14z"/>
  <path fill="#414142" d="M292 29h6l22 13 27 16 20 12 17 10 22 13 15 9 17 10 44 26 15 9 17 10 5 6v194l-4 6-13 8-19 11-17 10-35 21-27 16-14 8-25 15-13 8-11 6-15 9-27 16h-9l-10-6-27-16-29-17-10-6-17-10-25-15-17-10-27-16-29-17-25-15-3-4V162l4-5 26-15 15-9 49-29 44-26 15-9 66-39zm2 6-135 80-22 13-29 17-27 16-4 3v193l9 6 26 15 73 43 20 12 29 17 17 10 27 16 15 9 6-1 13-8 76-45 44-26 20-12 46-27 6-5 6-4-1-3-21-12-17-10-35-21-6-1-4-4-26-15-15-9-21-12-1-40-7-6-28-16-32-19-5 1-45 27-17 10 1 4 20 12 24 14 18 11h2v122l-11-6-26-15-22-13-8-5-1-80-6 2-26 15-27 16-8 5h-3v-97l3-3 25-15 95-56 14-8 5 1 16 9 15 9 24 14 54 32 20 12 9 3 39-23 29-17 7-4-1-4-26-15-15-9-29-17-15-9-32-19-17-10-28-17-26-15-25-15zm0 101-21 12-41 24-20 12-27 16-17 10-6 4v86l28-16 24-14 6-3 1-38 3-5 10-7 18-10 13-8 25-15h9l29 17 34 20 5 4 1 2 1 39 15 9 26 15 15 9h2l1-12v-73l-22-13-27-16-29-17-27-16-24-14z"/>
  <path fill="#2B2A2A" d="m294 35 12 6 13 8 29 17 25 15 22 13 108 64 7 4 1 4-16 9-22 13-28 17-9 5-9-3-51-30-25-15-24-14-27-16-3-2-6 1-26 15-25 15-24 14-49 29-9 4-5 2-27-16-32-19-15-9 2-5 53-31 59-35 81-48z"/>
  <path fill="#FDFDFD" d="M1840 168h57l5 8 14 30 10 22 7 14 8 17 1-88 3-3h43l3 2v180l-2 2-4 1h-47l-5-2-8-16-10-22-8-16-13-28-7-15-1 95-2 3-3 1h-38l-5-2-1-1V171zM982 168h57l5 8 13 27 12 26 10 22 5 10 1-91 2-2h44l2 2v180l-5 3h-48l-5-2-14-29-13-28-11-24-8-16-1 96-5 3h-38l-5-2-1-2V171zM848 164h43l19 5 16 8 11 8 10 10 10 15 7 17 3 12 1 9v25l-3 17-6 16-8 14-12 13-8 7-13 8-17 6-16 3h-31l-20-4-16-7-11-7-10-9-8-9-8-14-5-12-4-17-1-6v-26l4-19 6-15 9-14 9-10 9-8 14-8 13-5zm18 40-15 4-10 6-8 7-7 11-5 15-1 13 2 16 5 13 7 11 9 8 13 6 8 2h11l11-3 10-5 10-9 7-11 5-14 1-8v-12l-2-11-5-13-8-11-10-8-11-5-10-2zM561 168h84l14 3 12 6 10 9 4 5 5 10 2 9v16l-3 12-7 11-7 6 1 3 9 7 7 11 3 9 1 6v15l-3 13-7 12-5 6-10 7-11 5-12 3-12 1h-72l-5-2-1-2V171zm46 40v32h25l6-3 4-6 1-9-3-9-4-4-2-1zm0 70v35h27l7-3 4-7 1-4v-7l-3-8-4-4-8-2z"/>
  <path fill="#2B2A2A" d="m364 271 5 2 25 14 35 21 1 2 8 2 35 21 29 17 8 5-1 3-7 4-4 4-21 12-15 9-29 17-13 8-29 17-32 19-22 13-28 17-10 6h-4v-92l4-4 16-9 20-12 24-14 4-3z"/>
  <path fill="#FDFDFD" d="M1216 168h50l6 9 11 19 10 17 3 4 15-26 9-15 4-7 2-1h49l2 3v5l-50 80 2 5 16 26 14 23 16 26 5 8v6l-5 3h-43l-5-2-15-25-14-24-3-5-5 8-14 24-13 22-4 2h-44l-4-2-1-6 13-22 15-24 17-28 8-13-2-6-12-19-32-52-4-7 2-5zM1717 168h53l3 3 26 79 16 50 15 46-1 5-5 2h-40l-5-4-11-35v-2h-51l-2 9-9 28-5 4h-39l-5-3-1-3 18-55 18-54 14-43 9-26zm25 65-8 24-5 17h27l-8-27-4-13z"/>
  <path fill="#FDFDFD" d="M1439 165h22l17 3 12 4 9 6 1 7-7 28-3 4h-12l-10-6-9-3-6-1h-10l-11 4-3 4v10l5 5 19 9 23 10 13 9v2l4 2v2h2l6 10 3 9 1 6v15l-3 14-6 12-9 10-10 7-12 5-14 3h-31l-18-4-12-5-8-6-1-2v-35l3-4h12l13 8 15 5 5 1h13l10-3 2-5v-10l-4-5-14-7-30-13-11-7-7-7-6-10-4-16v-15l3-12 5-10 8-10 8-6 16-8 13-3zM1601 165h17l17 2 18 6 6 5v7l-7 27-2 4-5 1h-7l-10-5-12-3h-18l-18 6-10 7h-2l-2 4-6 10-3 9-1 7v12l2 12 5 12 7 9 10 8 15 6 11 2h13l12-3 15-6 3 1 4-1 4 3v37l-7 5-18 5-7 1h-33l-20-4-16-6-16-9-5-4v-2l-4-2-8-9-7-11-5-11-4-15-1-7v-31l3-15 6-15 7-11 11-12 3-1v-2l14-9 10-5 11-4 21-4z"/>
  <path fill="#4D4CA9" d="m293 129 5 1 16 9 15 9 24 14 76 45 5 4v99l-5-1-29-17-15-9-22-13-1-40-8-6-26-15-32-19-5 1-60 36h-2l2 4 26 15 17 10 20 12v122l-4-1-16-9-17-10-22-13-9-6v-80l-20 11-27 16-20 12-4-1v-97l4-4 25-15 95-56zm1 7-21 12-41 24-20 12-27 16-17 10-6 4v86l28-16 24-14 6-3 1-38 3-5 10-7 18-10 13-8 25-15h9l29 17 34 20 5 4 1 2 1 39 15 9 26 15 15 9h2l1-12v-73l-22-13-27-16-29-17-27-16-24-14z"/>
  <path fill="#2B317D" d="m293 189 5 1 32 19 26 15 7 6 1 40v80l-10 7-26 15-25 15-7 4-4-1h2V268l-5-2-41-24-18-11-1-4 29-17 15-9z"/>
  <path fill="#FDFDFD" d="M292 29h6l22 13 27 16 20 12 17 10 22 13 15 9 17 10 44 26 15 9 17 10 5 6v194l-4 6-13 8-19 11-17 10-35 21-27 16-14 8-25 15-13 8-11 6-15 9-27 16h-9l-10-6-27-16-29-17-10-6-17-10-25-15-17-10-27-16-29-17-25-15-3-4V162l4-5 26-15 15-9 49-29 44-26 15-9 66-39zm2 6-135 80-22 13-29 17-27 16-4 3v193l9 6 26 15 73 43 20 12 29 17 17 10 27 16 15 9 6-1 13-8 76-45 44-26 20-12 46-27 13-8 2-5V168l-2-5-13-8-24-14-22-13-27-16-32-19-17-10-28-17-26-15-25-15zM713 168h44l2 2v180l-2 2-4 1h-38l-4-2-1-2V171zM1158 168h43l3 3v178l-2 3-4 1h-38l-4-2-1-2V171z"/>
  <path fill="#FDFDFD" d="m293 129 5 1 16 9 15 9 24 14 76 45 5 4v99l-5-1-29-17-15-9-22-13-1-40-8-6-26-15-32-19-5 1-45 27-17 10-1 1-1 41-24 14-26 15-18 11-4-1v-97l4-4 25-15 95-56zm1 7-21 12-41 24-20 12-27 16-17 10-6 4v86l28-16 24-14 6-3 1-38 3-5 10-7 18-10 13-8 25-15h9l29 17 34 20 5 4 1 2 1 39 15 9 26 15 15 9h2l1-12v-73l-22-13-27-16-29-17-27-16-24-14z"/>
  <path fill="#393797" d="m293 189 5 1 32 19 26 15 6 5-1 2-5 2-54 32-5 3h-2v122h-1V268l-5-2-41-24-18-11-1-4 29-17 15-9z"/>
  <path fill="#0D0D0D" d="M982 168h57l5 8 13 27 12 26 10 22 5 10 1-91 2-2h44l2 2v180l-5 3h-48l-5-2-14-29-13-28-11-24-8-16-1 96-5 3h-38l-5-2-1-2V171zm2 5v174l1 1h38l1-117 17 36 14 30 18 38 6 12 1 1h48l1-175h-39l-1 110-16-33-12-26-24-51zM1840 168h57l5 8 14 30 10 22 7 14 8 17 1-88 3-3h43l3 2v180l-2 2-4 1h-47l-5-2-8-16-10-22-8-16-13-28-7-15-1 95-2 3-3 1h-38l-5-2-1-1V171zm2 5v174l1 1h37l1-1 1-115 14 29 13 28 17 36 11 23h49V173h-39l-1 109-32-68-13-28-6-13z"/>
  <path fill="#0C0C0C" d="M1216 168h50l6 9 11 19 10 17 3 4 15-26 9-15 4-7 2-1h49l2 3v5l-50 80 2 5 16 26 14 23 16 26 5 8v6l-5 3h-43l-5-2-15-25-14-24-3-5-5 8-14 24-13 22-4 2h-44l-4-2-1-6 13-22 15-24 17-28 8-13-2-6-12-19-32-52-4-7 2-5zm3 5 2 5 17 28 15 24 16 26-2 5-12 20-13 21-16 26-11 18v2h44l14-24 15-26 7-11 15 26 16 27 5 8h44l-1-4-17-28-16-26-14-23-6-10 7-12 30-48 14-23v-1h-44l-8 13-17 29-6 10v2l-4-4-12-21-16-27-1-2z"/>
  <path fill="#0D0D0D" d="M1439 165h22l17 3 12 4 9 6 1 7-7 28-3 4h-12l-10-6-9-3-6-1h-10l-11 4-3 4v10l5 5 19 9 23 10 13 9v2l4 2v2h2l6 10 3 9 1 6v15l-3 14-6 12-9 10-10 7-12 5-14 3h-31l-18-4-12-5-8-6-1-2v-35l3-4h12l13 8 15 5 5 1h13l10-3 2-5v-10l-4-5-14-7-30-13-11-7-7-7-6-10-4-16v-15l3-12 5-10 8-10 8-6 16-8 13-3zm0 5-20 4-16 8-8 7-7 11-4 10-1 5v15l3 13 6 10 10 9 16 8 30 13 8 6 3 5v11l-3 6-6 5-7 2h-14l-16-4-20-10v3l-5-3h-2v33l9 6 14 5 11 2h31l16-4 12-6 10-9 6-9 4-12 1-6v-15l-3-12-7-11-9-8-17-9-27-12-9-5-3-4-1-3v-11l4-6 10-5 5-1h11l15 4 10 6 4-2 5 2 7-28v-3l-14-7-12-3-8-1z"/>
  <path fill="#2B2A2A" d="m153 311 4 1v87l-2 3-9-4-14-8-22-13-27-16-4-4v-2l51-30 20-12z"/>
  <path fill="#0D0D0D" d="M1601 165h17l17 2 18 6 6 5v7l-7 27-2 4-5 1h-7l-10-5-12-3h-18l-18 6-10 7h-2l-2 4-6 10-3 9-1 7v12l2 12 5 12 7 9 10 8 15 6 11 2h13l12-3 15-6 3 1 4-1 4 3v37l-7 5-18 5-7 1h-33l-20-4-16-6-16-9-5-4v-2l-4-2-8-9-7-11-5-11-4-15-1-7v-31l3-15 6-15 7-11 11-12 3-1v-2l14-9 10-5 11-4 21-4zm1 5-22 3-14 4-17 8-12 9-9 9-9 14-6 16-2 10-1 10v11l2 19 6 18 6 11 8 10 10 9 11 7 16 7 17 4 6 1h33l16-3 9-4 2-1v-32l-6 2v-2l-21 7-6 1h-13l-15-3-12-5-11-8-7-8-7-14-3-16v-13l3-13 6-12 8-9 11-7 14-5 6-1h17l12 3 10 4 2 1 2-2 5 1 7-27-1-5-11-5-13-3-12-1z"/>
  <path fill="#0C0C0C" d="M1717 168h53l3 3 26 79 16 50 15 46-1 5-5 2h-40l-5-4-11-35v-2h-51l-2 9-9 28-5 4h-39l-5-3-1-3 18-55 18-54 14-43 9-26zm2 5-14 41-14 43-29 87v4h38l4-9 9-28v-3h59l3 12 8 26 2 2h39l1-2-24-73-14-43-17-52-2-5z"/>
  <path fill="#0D0D0D" d="M848 164h43l19 5 16 8 11 8 10 10 10 15 7 17 3 12 1 9v25l-3 17-6 16-8 14-12 13-8 7-13 8-17 6-16 3h-31l-20-4-16-7-11-7-10-9-8-9-8-14-5-12-4-17-1-6v-26l4-19 6-15 9-14 9-10 9-8 14-8 13-5zm11 4-16 2-15 5-14 7-10 8-8 8-10 15-6 15-3 11-1 7v26l3 16 6 16 6 11 8 10 8 8 14 9 11 5 15 4 7 1h31l16-3 13-5 13-7 12-11 8-9 7-12 6-16 3-14v-29l-3-15-6-16-8-13-11-12-10-8-16-8-18-5-10-1z"/>
  <path fill="#0E0E0E" d="M561 168h84l14 3 12 6 10 9 4 5 5 10 2 9v16l-3 12-7 11-7 6 1 3 9 7 7 11 3 9 1 6v15l-3 13-7 12-5 6-10 7-11 5-12 3-12 1h-72l-5-2-1-2V171zm2 5v174l1 1h72l16-2 12-4 10-6 5-5 6-7 5-12 1-5v-17l-4-13-7-10-11-8-5-2 12-9 6-8 4-9 1-4v-17l-3-10-5-9-8-8-8-5-11-4-5-1z"/>
  <path fill="#2B2A2A" d="M220 273h5v76h-4l-29-17-28-17-5-3 1-4 26-15 27-16z"/>
  <path fill="#0D0D0D" d="M713 168h44l2 2v180l-2 2-4 1h-38l-4-2-1-2V171zm2 5v174l1 1h38V173z"/>
  <path fill="#0C0C0C" d="M1158 168h43l3 3v178l-2 3-4 1h-38l-4-2-1-2V171zm2 5v175h38l1-1V173z"/>
  <path fill="#0D0D0D" d="m869 199 14 2 10 4 11 7 9 10 7 14 3 11 1 7v12l-3 15-5 12-8 11-9 8-12 6-12 3h-11l-12-3-12-6-10-9-8-12-5-14-2-16 1-14 4-13 5-10 8-10 11-8 12-5zm-3 5-15 4-10 6-8 7-7 11-5 15-1 13 2 16 5 13 7 11 9 8 13 6 8 2h11l11-3 10-5 10-9 7-11 5-14 1-8v-12l-2-11-5-13-8-11-10-8-11-5-10-2z"/>
  <path fill="#0C0C0C" d="M602 273h29l9 2 8 7 2 5 1 11-2 9-7 8-8 3h-32zm5 5v35h27l7-3 4-7 1-4v-7l-3-8-4-4-8-2zM1742 216l2 1 17 55 1 7h-39l2-10zm0 17-8 24-5 17h27l-8-27-4-13zM602 203h32l8 4 4 6 2 8-1 10-4 8-7 5-4 1h-30zm5 5v32h25l6-3 4-6 1-9-3-9-4-4-2-1z"/>
</svg>
