<?xml version="1.0" encoding="UTF-8"?>
<svg version="1.1" viewBox="0 0 2048 517" width="950" height="240" xmlns="http://www.w3.org/2000/svg">
<path transform="translate(257,70)" d="m0 0 6 1 26 15 24 14 104 60 21 12 3 2v157l-5 4-25 14-24 14-28 16-24 14-49 28-25 15-5-1-49-28-26-15-24-14-28-16-26-15-23-13-3-2v-158l24-14 28-16 104-60zm0 76-24 14-25 14-24 14-23 13-18 11v82l11-6 45-25 3-2 1-34 28-16 24-14 6-1 25 14 24 14 5 3 1 33 9 6 27 15 22 13h1l1-81-10-7-27-15-24-14-49-28-5-3z" fill="#2C2C2C"/>
<path transform="translate(77,174)" d="m0 0 36 21 28 16 2 1 1 81 28-16 25-14 4-2 1-34 13-8 42-24 6 1 28 16 24 14 1 1 1 33 3 3-2 5-1 59-13 8-25 14-17 10-2 1-1 75 2 1-5-1-49-28-26-15-24-14-28-16-26-15-23-13-3-2z" fill="#424143"/>
<path transform="translate(257,195)" d="m0 0 6 1 28 16 24 14 1 1 1 33 3 3-2 5-1 59-13 8-25 14-17 10-5 1-24-14-23-13-9-6v-66l1-34 13-8 28-16z" fill="#373696"/>
<path transform="translate(319,263)" d="m0 0 6 2 27 15 22 13 22 12 27 16 15 8 2 3-9 6-20 11-24 14-28 16-24 14-49 28-24 14h-3v-75l24-14 25-14 8-5 1-59z" fill="#2B2B2B"/>
<path transform="translate(500,195)" d="m0 0h87l10 4 8 6 5 7 2 7v11l-3 9-5 7-10 5 3 2 10 6 5 7 3 11v8l-2 8-3 6-6 7-12 6-5 1h-87zm38 26v20h29l4-2 2-4v-9l-5-5zm1 44-1 1v20h31l5-3 2-3v-9l-4-5-4-1z" fill="#010101"/>
<path transform="translate(845,195)" d="m0 0h34l9 10 9 11 13 15 12 14 5 6h1v-56h35v118h-34l-12-14-9-10-9-11-10-11-8-10-1 56h-35z" fill="#010101"/>
<path transform="translate(748,193)" d="m0 0h25l14 3 10 4 11 8 7 8 6 12 3 12 1 9v11l-3 17-5 12-7 9-8 7-12 6-17 4h-26l-16-4-12-6-10-9-7-11-4-12-2-16 1-17 3-12 6-12 9-10 11-7 15-5zm7 28-10 4-6 7-3 7-1 9v14l2 10 5 8 6 5 7 2h11l8-3 7-6 4-9 1-6v-18l-2-9-5-8-5-4-8-3z" fill="#020202"/>
<path transform="translate(1775,195)" d="m0 0h102v28h-64v16l55 1v26l-1 1h-54v17l65 1v28h-103l-1-3v-114z" fill="#030303"/>
<path transform="translate(1497,195)" d="m0 0h38l1 77 4 8 5 4 6 2h10l9-4 5-8 1-6 1-73h38v76l-2 11-4 10-7 9-8 6-11 5-14 3h-27l-16-4-10-5-10-9-6-10-3-11z" fill="#010101"/>
<path transform="translate(1048,195)" d="m0 0h46l6 9 12 20 4-5 14-24h43l-7 11-15 22-13 19-2 5 11 16 17 25 13 19v1h-46l-6-9-15-25v-2l-4 4-9 16-10 16h-43l7-11 19-28 15-22-2-5-8-12-11-16-15-22z" fill="#010101"/>
<path transform="translate(1395,195)" d="m0 0h44l5 12 23 63 15 41v2h-40l-3-8-1-8h-43l-2 9-2 7h-39l1-5 21-58 19-52zm21 33-3 8-9 30v4h25l-3-12-9-30z" fill="#010101"/>
<path transform="translate(1684,193)" d="m0 0h25l16 4 12 7 8 8 5 9 3 9 1 13-20 1h-15l-2-3-2-8-3-5v-2l-10-4h-10l-8 3-3 1-2 4-3 8-1 6v20l3 12 4 6 10 4h10l10-4 4-5 3-12h34l1 1-1 13-4 11-6 9-8 7-12 6-14 3h-25l-16-4-12-6-10-10-7-14-3-12-1-8v-14l3-17 5-12 6-8 9-8 10-5z" fill="#020202"/>
<path transform="translate(440,174)" d="m0 0h1v157l-5-2-22-12-25-15-14-7v-83l16-9 17-10 23-13z" fill="#434244"/>
<path transform="translate(77,174)" d="m0 0 36 21 28 16 2 1 1 83-8 3-21 12-26 15-9 5h-2l-1 2z" fill="#434244"/>
<path transform="translate(1248,195)" d="m0 0h95v28l-57 1v19l49 1v27l-49 1v40l-1 1h-37l-1-1v-116z" fill="#020202"/>
<path transform="translate(1890,195)" d="m0 0h116v30h-39v88h-38v-88h-39z"/>
<path transform="translate(990,195)" d="m0 0h38l1 1v117h-38l-1-1z" fill="#070707"/>
<path transform="translate(636,195)" d="m0 0h38v118h-38z" fill="#010101"/>
<path transform="translate(140,295)" d="m0 0h4v74l-4-1-25-14-21-12-15-9-1-3 22-12 17-10z" fill="#2C2C2C"/>
<path transform="translate(199,262)" d="m0 0h2v64l-5-2-27-15-15-9-9-5 2-4 27-15 21-12z" fill="#2C2C2C"/>
</svg>
