<svg xmlns="http://www.w3.org/2000/svg" fill="none" viewBox="0 0 73 24">
  <g clip-path="url(#ink-dark_svg__a)">
    <g fill="#F0EFFE" clip-path="url(#ink-dark_svg__b)">
      <path d="M35.386 2.136v20.407h3.452V10.695c0-3.406 1.88-5.784 5.254-5.784 2.991 0 4.793 1.863 4.793 5.666v11.966h3.45V10.06c0-6.142-3.144-8.519-7.478-8.519-2.645 0-4.984 1.228-6.097 3.21V2.136h-3.374ZM55.058 22.543V2.137h3.45v9.35l9.28-9.352h4.45l-8.093 8.084 8.552 12.322H68.67l-6.864-9.865-3.298 3.248v6.617h-3.45ZM28.429 22.543V2.099h3.506v20.444H28.43Z"/>
      <path fill-rule="evenodd" d="M24 12c0-6.627-5.373-12-12-12S0 5.373 0 12s5.373 12 12 12 12-5.373 12-12Zm-10.287 8.981c0 .814-.668 1.476-1.617 1.495h-.113C6.205 22.466 1.523 17.78 1.523 12 1.524 6.214 6.215 1.524 12 1.524h.094c1.07.02 1.619.681 1.619 1.495 0 .829-.733 1.438-1.508 1.438-.777 0-.815 0-1.557.06-.743.06-1.511.669-1.511 1.495 0 .83.675 1.5 1.51 1.5h6.588c.833 0 1.508.67 1.508 1.495 0 .826-.675 1.495-1.508 1.495H7.089c-.836 0-1.51.672-1.51 1.5 0 .826.674 1.496 1.51 1.496h5.115c.834 0 1.509.669 1.509 1.497 0 .826-.675 1.496-1.508 1.496h-1.557c-.836 0-1.511.669-1.511 1.495 0 .828.692 1.433 1.51 1.495l.179.013c.288.022.445.034.603.041.19.008.38.008.8.008.833 0 1.484.612 1.484 1.438Z" clip-rule="evenodd"/>
    </g>
  </g>
  <defs>
    <clipPath id="ink-dark_svg__a">
      <path fill="#fff" d="M0 0h72.698v24H0z"/>
    </clipPath>
    <clipPath id="ink-dark_svg__b">
      <path fill="#fff" d="M0 0h72.698v24H0z"/>
    </clipPath>
  </defs>
</svg>
