<svg xmlns="http://www.w3.org/2000/svg" fill="none" viewBox="0 0 127 24">
  <g clip-path="url(#metabased-stratos_svg__a)">
    <path fill="#CECECE" d="m13.182 12.114 13.182 4.943L13.182 22 0 17.057l13.182-4.943Z"/>
    <path fill="#989898" d="m13.182 7 13.182 5-13.182 5L0 12l13.182-5Z"/>
    <path fill="#3D3D3D" d="m13.182 2 13.182 4.943-13.182 4.943L0 6.943 13.182 2Z"/>
    <path fill="#000" d="m36.775 6.206 2.518 7.062 2.689-7.062h1.34v12.51h-.997v-5.542l.069-5.507-2.775 7.286h-.67l-2.56-7.157.068 5.378v5.541h-1.005V6.206h1.323Zm13.408 12.681c-.642 0-1.229-.12-1.761-.36a4.138 4.138 0 0 1-1.366-.98 4.531 4.531 0 0 1-.894-1.452 4.92 4.92 0 0 1-.318-1.77v-.37c0-.658.106-1.274.318-1.846.218-.579.516-1.08.894-1.504a4.023 4.023 0 0 1 1.306-.988 3.667 3.667 0 0 1 1.632-.37c.613 0 1.157.112 1.632.336a3.43 3.43 0 0 1 1.203.902c.327.39.573.845.74 1.366.165.515.251 1.068.257 1.658v.627h-6.96v.284c.024.492.115.95.276 1.374.16.424.386.8.678 1.126.287.332.633.598 1.04.799a3.16 3.16 0 0 0 1.366.292 3.53 3.53 0 0 0 1.555-.318 3.34 3.34 0 0 0 1.194-.945l.645.49c-.35.492-.817.89-1.4 1.194-.585.304-1.264.455-2.037.455Zm-.189-8.754c-.424 0-.81.08-1.16.24-.35.155-.656.37-.92.645-.263.28-.48.612-.652.996-.172.384-.29.8-.352 1.246h5.893v-.095c0-.378-.068-.753-.206-1.125a3.144 3.144 0 0 0-.55-.98 2.668 2.668 0 0 0-.876-.67 2.598 2.598 0 0 0-1.177-.257ZM60.18 7.04v2.38h3.445v.85H60.18v5.825c.006.361.06.662.163.902.103.24.247.433.43.576.183.149.398.255.644.318s.51.094.79.094c.167 0 .333-.005.499-.017.166-.017.33-.034.49-.052l.352-.051.31-.06.154.782a1.75 1.75 0 0 1-.361.128 4.175 4.175 0 0 1-.421.086 4.797 4.797 0 0 1-.593.07c-.2.01-.4.016-.601.016-.413 0-.797-.051-1.152-.154a2.322 2.322 0 0 1-.91-.481 2.229 2.229 0 0 1-.61-.86c-.143-.355-.218-.787-.224-1.297V10.27h-2.586v-.85h2.586V7.04h1.04Zm13.502 11.675a4.478 4.478 0 0 1-.146-.661 9.638 9.638 0 0 1-.06-.713 3.714 3.714 0 0 1-1.4 1.125c-.287.138-.59.24-.911.31a4.288 4.288 0 0 1-.988.111c-.43 0-.833-.063-1.211-.189a2.986 2.986 0 0 1-.98-.532 2.541 2.541 0 0 1-.653-.825 2.44 2.44 0 0 1-.24-1.091c0-.533.117-.985.352-1.358.24-.372.561-.678.962-.919a4.44 4.44 0 0 1 1.383-.498 8.607 8.607 0 0 1 1.658-.172h2.02v-1.048a2.106 2.106 0 0 0-.207-.92 1.877 1.877 0 0 0-.541-.67 2.421 2.421 0 0 0-.816-.403 3.33 3.33 0 0 0-1.006-.146c-.331 0-.65.042-.953.128a2.74 2.74 0 0 0-.808.37c-.229.16-.418.358-.567.593-.143.229-.217.49-.223.781l-1.031-.008c.017-.395.123-.76.318-1.091.195-.332.455-.622.782-.868.326-.24.704-.43 1.134-.567.435-.138.899-.206 1.392-.206.492 0 .953.063 1.383.189.43.126.804.312 1.125.558.315.258.564.576.748.954.189.378.286.819.292 1.323v4.493c0 .315.025.63.077.945.058.315.126.616.206.902l.009.104h-1.1Zm-3.394-.747c.362.006.705-.034 1.032-.12.326-.092.627-.218.902-.378s.518-.352.73-.576c.212-.223.384-.472.515-.747v-2.045h-1.872c-.51.006-.994.049-1.453.129-.458.08-.85.223-1.176.43a1.961 1.961 0 0 0-.628.618c-.149.24-.223.533-.223.876a1.635 1.635 0 0 0 .636 1.323c.194.16.424.284.687.37.27.08.553.12.85.12Zm15.092-3.806a8.485 8.485 0 0 1-.094 1.143 5.802 5.802 0 0 1-.267 1.065 4.61 4.61 0 0 1-.54 1.074c-.218.32-.48.596-.783.825-.269.189-.567.338-.893.447a3.25 3.25 0 0 1-1.083.171c-.343 0-.67-.043-.979-.128a3.372 3.372 0 0 1-.85-.353 3.503 3.503 0 0 1-.56-.395 3.208 3.208 0 0 1-.446-.515l-.043 1.22h-.954V5.518h1.023v5.19a3.45 3.45 0 0 1 1.108-1.04 3.65 3.65 0 0 1 .79-.31c.281-.074.58-.111.894-.111.424 0 .81.06 1.16.18.35.12.659.287.928.498.258.207.484.453.678.74.195.28.361.59.499.927.137.355.237.736.3 1.143.07.406.106.822.112 1.246v.18Zm-1.03-.18a8.067 8.067 0 0 0-.07-.911 5.387 5.387 0 0 0-.189-.885 3.92 3.92 0 0 0-.403-.86c-.16-.268-.361-.492-.602-.67a2.449 2.449 0 0 0-.695-.369 2.607 2.607 0 0 0-.877-.137c-.315 0-.61.046-.885.137a2.684 2.684 0 0 0-1.323.971c-.166.224-.298.47-.395.739v4.287c.103.264.243.501.42.713.178.206.382.384.61.533.224.149.47.263.74.344.275.074.558.111.85.111.332 0 .63-.046.894-.137.269-.098.504-.232.704-.404.23-.183.424-.407.584-.67.16-.264.29-.55.387-.86.086-.274.146-.56.18-.858.04-.298.064-.596.07-.894v-.18Zm10.409 4.733a4.478 4.478 0 0 1-.147-.661 9.638 9.638 0 0 1-.06-.713 3.711 3.711 0 0 1-1.4 1.125c-.286.138-.59.24-.91.31a4.283 4.283 0 0 1-.989.111c-.43 0-.833-.063-1.211-.189a2.988 2.988 0 0 1-.98-.532 2.54 2.54 0 0 1-.652-.825c-.16-.327-.241-.69-.241-1.091 0-.533.117-.985.352-1.358.24-.372.561-.678.963-.919.395-.23.856-.395 1.383-.498a8.606 8.606 0 0 1 1.658-.172h2.019v-1.048a2.108 2.108 0 0 0-.207-.92 1.88 1.88 0 0 0-.54-.67 2.424 2.424 0 0 0-.817-.403 3.329 3.329 0 0 0-1.005-.146c-.332 0-.65.042-.954.128a2.744 2.744 0 0 0-.807.37c-.23.16-.418.358-.567.593a1.5 1.5 0 0 0-.224.781l-1.03-.008c.017-.395.122-.76.317-1.091.195-.332.456-.622.782-.868.326-.24.704-.43 1.134-.567.435-.138.9-.206 1.392-.206.492 0 .954.063 1.383.189.43.126.805.312 1.126.558.314.258.564.576.747.954.189.378.286.819.292 1.323v4.493c0 .315.026.63.078.945.057.315.125.616.206.902l.008.104h-1.1Zm-3.394-.747c.36.006.704-.034 1.03-.12.328-.092.628-.218.903-.378s.518-.352.73-.576c.212-.223.384-.472.516-.747v-2.045H92.67a9 9 0 0 0-1.452.129c-.458.08-.85.223-1.177.43a1.966 1.966 0 0 0-.627.618c-.15.24-.224.533-.224.876 0 .28.058.533.172.756.115.224.27.413.464.567.195.16.424.284.687.37.27.08.553.12.851.12Zm14.026-1.624c0-.269-.063-.504-.189-.704a1.639 1.639 0 0 0-.524-.524 3.773 3.773 0 0 0-.902-.413 10.66 10.66 0 0 0-1.083-.292c-.475-.097-.91-.209-1.305-.335a5.51 5.51 0 0 1-1.109-.49 2.427 2.427 0 0 1-.781-.721c-.195-.298-.293-.659-.293-1.083a2 2 0 0 1 .293-1.074c.2-.315.466-.584.798-.807a3.868 3.868 0 0 1 1.1-.481 4.984 4.984 0 0 1 1.306-.172c.498 0 .965.063 1.401.189.441.12.827.298 1.159.532.327.241.587.533.782.877.195.343.301.736.318 1.177h-1.031a1.48 1.48 0 0 0-.24-.8 1.985 1.985 0 0 0-.585-.592 2.956 2.956 0 0 0-.842-.37 3.577 3.577 0 0 0-.962-.128 4.07 4.07 0 0 0-.919.103 2.552 2.552 0 0 0-.782.3c-.235.132-.424.301-.567.507a1.21 1.21 0 0 0-.206.705c0 .269.06.504.18.704.126.195.309.361.55.499.241.143.53.263.868.36.338.092.69.175 1.057.25.469.097.916.217 1.34.36.429.138.807.31 1.134.516.326.212.584.47.773.773.189.298.284.659.284 1.083 0 .4-.092.759-.275 1.074a2.466 2.466 0 0 1-.713.781 3.703 3.703 0 0 1-1.238.559c-.469.12-.945.18-1.426.18a5.511 5.511 0 0 1-1.495-.197 3.995 3.995 0 0 1-1.22-.559 2.703 2.703 0 0 1-.841-.867 2.46 2.46 0 0 1-.327-1.16H99.9c.035.366.143.673.327.919.189.246.421.441.696.584.263.15.555.255.876.318.327.057.647.086.962.086.407 0 .791-.049 1.151-.146.361-.103.673-.255.937-.455.172-.138.304-.293.395-.464.097-.178.146-.378.146-.602Zm8.021 2.543c-.641 0-1.229-.12-1.761-.36a4.137 4.137 0 0 1-1.366-.98 4.536 4.536 0 0 1-.894-1.452 4.921 4.921 0 0 1-.317-1.77v-.37c0-.658.105-1.274.317-1.846.218-.579.516-1.08.894-1.504a4.018 4.018 0 0 1 1.306-.988 3.667 3.667 0 0 1 1.632-.37c.613 0 1.157.112 1.632.336.476.217.877.518 1.203.902.327.39.573.845.739 1.366.166.515.252 1.068.258 1.658v.627h-6.959v.284c.023.492.114.95.275 1.374.16.424.386.8.678 1.126a3.26 3.26 0 0 0 1.04.799c.412.195.868.292 1.366.292a3.53 3.53 0 0 0 1.555-.318 3.337 3.337 0 0 0 1.194-.945l.645.49c-.35.492-.817.89-1.401 1.194-.584.304-1.263.455-2.036.455Zm-.189-8.754c-.424 0-.81.08-1.16.24a2.88 2.88 0 0 0-.919.645 3.59 3.59 0 0 0-.653.996 4.599 4.599 0 0 0-.352 1.246h5.893v-.095c0-.378-.068-.753-.206-1.125a3.128 3.128 0 0 0-.55-.98 2.66 2.66 0 0 0-.876-.67 2.598 2.598 0 0 0-1.177-.257Zm6.457 3.849c0-.613.075-1.2.224-1.762a4.941 4.941 0 0 1 .67-1.495 3.491 3.491 0 0 1 1.151-1.073c.464-.27 1.014-.404 1.65-.404.584 0 1.114.129 1.589.386.475.252.865.602 1.168 1.048V5.52h1.023v13.196h-.954l-.034-1.185a3.181 3.181 0 0 1-1.22 1.014 3.723 3.723 0 0 1-1.59.343c-.613 0-1.151-.134-1.615-.403a3.65 3.65 0 0 1-1.151-1.066 4.947 4.947 0 0 1-.679-1.503 6.658 6.658 0 0 1-.232-1.753v-.18Zm1.031.18c0 .464.049.922.146 1.375.103.446.264.853.481 1.22.23.36.522.655.877.885.361.229.805.343 1.332.343a2.9 2.9 0 0 0 1.554-.43 2.59 2.59 0 0 0 1.031-1.185v-4.459a2.81 2.81 0 0 0-.996-1.271c-.447-.327-.971-.49-1.572-.49-.533 0-.983.114-1.349.343a2.73 2.73 0 0 0-.877.894 4.245 4.245 0 0 0-.481 1.229 6.5 6.5 0 0 0-.146 1.366v.18Z"/>
  </g>
  <defs>
    <clipPath id="metabased-stratos_svg__a">
      <path fill="#fff" d="M0 0h127v24H0z"/>
    </clipPath>
  </defs>
</svg>
