<svg xmlns="http://www.w3.org/2000/svg" fill="none" viewBox="0 0 127 24">
  <g clip-path="url(#metabased-stratos-dark_svg__a)">
    <path fill="#fff" d="m36.776 6.324 2.517 7.062 2.689-7.062h1.34v12.509h-.996v-5.541l.068-5.508-2.774 7.286h-.67l-2.561-7.157.069 5.378v5.542h-1.005V6.323h1.322Zm13.407 12.68a4.23 4.23 0 0 1-1.76-.36 4.14 4.14 0 0 1-1.367-.98 4.534 4.534 0 0 1-.893-1.451 4.922 4.922 0 0 1-.318-1.77v-.37c0-.658.106-1.274.318-1.847.217-.578.515-1.08.893-1.503a4.021 4.021 0 0 1 1.306-.988 3.668 3.668 0 0 1 1.632-.37c.613 0 1.157.112 1.633.335a3.43 3.43 0 0 1 1.203.902c.326.39.572.845.739 1.366.165.516.251 1.069.257 1.659v.627h-6.959v.283c.023.493.115.951.275 1.375.16.424.387.799.679 1.125.286.333.633.599 1.04.8.412.194.867.291 1.365.291.573.006 1.092-.1 1.555-.317a3.342 3.342 0 0 0 1.194-.945l.645.49c-.35.492-.816.89-1.4 1.193-.585.304-1.264.456-2.037.456Zm-.189-8.754c-.423 0-.81.08-1.16.24-.349.155-.655.37-.919.645-.263.28-.48.613-.653.997a4.61 4.61 0 0 0-.352 1.245h5.894v-.094c0-.378-.069-.753-.207-1.126a3.14 3.14 0 0 0-.55-.979 2.668 2.668 0 0 0-.876-.67 2.598 2.598 0 0 0-1.177-.258ZM60.18 7.157v2.38h3.445v.85H60.18v5.826c.006.36.06.661.164.902.102.24.246.432.43.575.182.15.397.255.643.318.247.063.51.095.79.095a7.2 7.2 0 0 0 .499-.018l.49-.051c.12-.017.238-.034.352-.052l.31-.06.154.782a1.763 1.763 0 0 1-.36.129 4.209 4.209 0 0 1-.422.086 4.78 4.78 0 0 1-.593.069c-.2.011-.4.017-.601.017-.412 0-.796-.052-1.151-.155a2.322 2.322 0 0 1-.91-.481 2.227 2.227 0 0 1-.61-.86c-.144-.354-.218-.787-.224-1.296v-5.825h-2.586v-.851h2.586v-2.38h1.04Zm13.503 11.676a4.476 4.476 0 0 1-.146-.662 9.633 9.633 0 0 1-.06-.713 3.707 3.707 0 0 1-1.401 1.126c-.286.137-.59.24-.91.31a4.283 4.283 0 0 1-.989.11c-.43 0-.833-.062-1.211-.188a2.987 2.987 0 0 1-.98-.533 2.54 2.54 0 0 1-.653-.825 2.44 2.44 0 0 1-.24-1.09c0-.533.117-.986.352-1.358.24-.373.561-.679.962-.92a4.44 4.44 0 0 1 1.383-.498 8.599 8.599 0 0 1 1.659-.172h2.019v-1.048a2.107 2.107 0 0 0-.207-.92 1.876 1.876 0 0 0-.54-.67 2.418 2.418 0 0 0-.817-.403 3.33 3.33 0 0 0-1.005-.146c-.332 0-.65.043-.954.129-.303.086-.573.209-.807.37-.23.16-.419.357-.567.592-.144.23-.218.49-.224.782l-1.03-.009c.016-.395.123-.759.317-1.09.195-.333.455-.622.782-.869.326-.24.704-.43 1.134-.567.435-.137.9-.206 1.392-.206.493 0 .954.063 1.383.19.43.125.805.311 1.126.558.315.257.564.575.747.953.189.378.286.82.292 1.323v4.494c0 .315.026.63.077.945.058.315.127.616.207.902l.008.103h-1.1Zm-3.394-.747c.36.005.704-.035 1.03-.12.327-.092.628-.218.903-.379.275-.16.518-.352.73-.575.212-.224.384-.473.516-.748V14.22h-1.873c-.51.006-.994.049-1.452.13-.458.08-.85.223-1.177.429a1.96 1.96 0 0 0-.627.618c-.15.241-.224.533-.224.877a1.635 1.635 0 0 0 .636 1.323c.195.16.424.283.687.37.27.08.553.12.85.12ZM85.38 14.28a8.502 8.502 0 0 1-.095 1.142 5.79 5.79 0 0 1-.266 1.066c-.138.389-.318.747-.541 1.073-.218.321-.479.596-.782.825a3.44 3.44 0 0 1-.894.447 3.253 3.253 0 0 1-1.083.172c-.343 0-.67-.043-.979-.13a3.376 3.376 0 0 1-.85-.351 3.516 3.516 0 0 1-.559-.396 3.216 3.216 0 0 1-.447-.515l-.043 1.22h-.953V5.636h1.022v5.19a3.453 3.453 0 0 1 1.109-1.04 3.65 3.65 0 0 1 .79-.31c.28-.074.578-.11.893-.11.424 0 .81.06 1.16.18.35.12.659.286.928.498.258.206.484.452.679.739.194.28.36.59.498.928.138.355.238.736.3 1.142.07.407.107.822.113 1.246v.18Zm-1.031-.18a8.086 8.086 0 0 0-.07-.912 5.393 5.393 0 0 0-.188-.885 3.923 3.923 0 0 0-.404-.859c-.16-.269-.36-.492-.601-.67a2.444 2.444 0 0 0-.696-.37 2.604 2.604 0 0 0-.877-.137 2.678 2.678 0 0 0-1.615.515 2.863 2.863 0 0 0-.988 1.332v4.288c.103.263.243.5.421.713.178.206.381.383.61.532.224.15.47.264.739.344.275.075.559.112.85.112.333 0 .63-.046.894-.138.27-.097.504-.232.704-.404.23-.183.424-.406.585-.67.16-.263.29-.55.386-.859a4.67 4.67 0 0 0 .18-.859c.041-.298.064-.596.07-.893v-.18Zm10.409 4.733a4.464 4.464 0 0 1-.146-.662 9.688 9.688 0 0 1-.06-.713 3.704 3.704 0 0 1-1.4 1.126c-.287.137-.59.24-.911.31a4.28 4.28 0 0 1-.988.11c-.43 0-.834-.062-1.212-.188a2.989 2.989 0 0 1-.98-.533 2.54 2.54 0 0 1-.652-.825 2.44 2.44 0 0 1-.24-1.09c0-.533.117-.986.351-1.358.241-.373.562-.679.963-.92.395-.229.856-.395 1.383-.498a8.6 8.6 0 0 1 1.658-.172h2.02v-1.048a2.11 2.11 0 0 0-.207-.92 1.88 1.88 0 0 0-.541-.67 2.42 2.42 0 0 0-.817-.403 3.329 3.329 0 0 0-1.005-.146c-.332 0-.65.043-.953.129a2.75 2.75 0 0 0-.808.37c-.229.16-.418.357-.567.592-.143.23-.218.49-.223.782l-1.031-.009c.017-.395.123-.759.317-1.09.195-.333.456-.622.782-.869.327-.24.705-.43 1.134-.567.436-.137.9-.206 1.392-.206.493 0 .954.063 1.383.19.43.125.805.311 1.126.558.315.257.564.575.747.953.19.378.287.82.293 1.323v4.494c0 .315.025.63.077.945.057.315.126.616.206.902l.009.103h-1.1Zm-3.394-.747c.361.005.705-.035 1.031-.12.327-.092.627-.218.902-.379.275-.16.519-.352.73-.575.212-.224.384-.473.516-.748V14.22h-1.873a9 9 0 0 0-1.452.13c-.458.08-.85.223-1.177.429a1.964 1.964 0 0 0-.627.618c-.15.241-.223.533-.223.877 0 .28.057.532.172.756.114.223.268.412.463.567.195.16.424.283.688.37.269.08.552.12.85.12Zm14.026-1.624c0-.27-.062-.504-.188-.705a1.649 1.649 0 0 0-.524-.524 3.78 3.78 0 0 0-.903-.412 10.66 10.66 0 0 0-1.082-.292c-.476-.098-.911-.21-1.306-.335a5.508 5.508 0 0 1-1.108-.49 2.424 2.424 0 0 1-.782-.722c-.195-.298-.292-.659-.292-1.082a2 2 0 0 1 .292-1.074c.2-.315.467-.585.799-.808a3.861 3.861 0 0 1 1.099-.481c.424-.115.86-.172 1.306-.172.499 0 .965.063 1.401.19.441.12.827.297 1.16.532.326.24.587.533.782.876.194.344.3.736.317 1.177h-1.031a1.472 1.472 0 0 0-.24-.799 1.994 1.994 0 0 0-.584-.593 2.965 2.965 0 0 0-.842-.369 3.58 3.58 0 0 0-.963-.129c-.315 0-.621.034-.919.103a2.554 2.554 0 0 0-.782.3 1.68 1.68 0 0 0-.567.508c-.137.2-.206.435-.206.704 0 .27.06.504.18.705.127.194.31.36.55.498.241.143.53.264.868.36.338.093.69.176 1.057.25.469.097.916.218 1.34.36.43.138.808.31 1.134.516.327.212.584.47.773.774.189.298.284.658.284 1.082 0 .401-.092.76-.275 1.074a2.454 2.454 0 0 1-.713.782 3.705 3.705 0 0 1-1.237.558c-.47.12-.945.18-1.426.18a5.51 5.51 0 0 1-1.495-.197 3.974 3.974 0 0 1-1.22-.558 2.698 2.698 0 0 1-.842-.868 2.46 2.46 0 0 1-.327-1.16h1.023c.034.367.143.673.326.92.189.246.421.44.696.584.263.149.556.255.876.318.327.057.647.085.963.085.406 0 .79-.048 1.151-.146.361-.103.673-.255.936-.455.172-.137.304-.292.395-.464.098-.177.146-.378.146-.601Zm8.022 2.543c-.642 0-1.229-.12-1.762-.361a4.138 4.138 0 0 1-1.366-.98 4.517 4.517 0 0 1-.893-1.451 4.922 4.922 0 0 1-.318-1.77v-.37c0-.658.106-1.274.318-1.847.217-.578.515-1.08.893-1.503a4.028 4.028 0 0 1 1.306-.988 3.667 3.667 0 0 1 1.632-.37c.613 0 1.157.112 1.633.335.475.218.876.519 1.203.902.326.39.572.845.739 1.366.166.516.252 1.069.257 1.659v.627h-6.959v.283c.023.493.115.951.275 1.375.16.424.387.799.679 1.125.286.333.633.599 1.039.8.413.194.868.291 1.366.291.573.006 1.092-.1 1.556-.317a3.356 3.356 0 0 0 1.194-.945l.644.49c-.349.492-.816.89-1.4 1.193-.585.304-1.263.456-2.036.456Zm-.19-8.755c-.423 0-.81.08-1.159.24-.35.155-.656.37-.92.645-.263.28-.481.613-.653.997a4.636 4.636 0 0 0-.352 1.245h5.894v-.094c0-.378-.069-.753-.206-1.126a3.146 3.146 0 0 0-.55-.979 2.679 2.679 0 0 0-.876-.67 2.603 2.603 0 0 0-1.178-.258Zm6.458 3.85c0-.614.074-1.2.223-1.762a4.965 4.965 0 0 1 .67-1.495 3.512 3.512 0 0 1 1.151-1.074c.464-.27 1.014-.404 1.65-.404.584 0 1.114.129 1.589.387.476.252.865.601 1.169 1.048V5.636h1.022v13.197h-.954l-.034-1.186c-.32.441-.727.78-1.22 1.014a3.72 3.72 0 0 1-1.589.344c-.613 0-1.152-.135-1.616-.404a3.66 3.66 0 0 1-1.151-1.065 4.945 4.945 0 0 1-.678-1.504 6.616 6.616 0 0 1-.232-1.752v-.18Zm1.031.18c0 .463.048.922.146 1.374.103.447.263.854.481 1.22.229.361.521.656.876.885.361.23.805.344 1.332.344a2.9 2.9 0 0 0 1.555-.43 2.6 2.6 0 0 0 1.031-1.185v-4.46a2.806 2.806 0 0 0-.997-1.271c-.447-.326-.971-.49-1.572-.49-.533 0-.982.115-1.349.344-.361.229-.653.527-.876.893a4.215 4.215 0 0 0-.481 1.229 6.435 6.435 0 0 0-.146 1.366v.18Z"/>
    <path fill="#4B4B4B" d="m13.182 12.114 13.182 4.943L13.182 22 0 17.057l13.182-4.943Z"/>
    <path fill="#989898" d="m13.182 7 13.182 5-13.182 5L0 12l13.182-5Z"/>
    <path fill="#fff" d="m13.182 2 13.182 4.943-13.182 4.943L0 6.943 13.182 2Z"/>
  </g>
  <defs>
    <clipPath id="metabased-stratos-dark_svg__a">
      <path fill="#fff" d="M0 0h127v24H0z"/>
    </clipPath>
  </defs>
</svg>
