<svg xmlns="http://www.w3.org/2000/svg" fill="none" viewBox="0 0 88 24">
  <g fill="#fff" clip-path="url(#scroll-dark_svg__a)">
    <path d="M33.34 6.62c-1.626 0-2.897.947-2.897 2.306 0 1.36 1.064 1.803 2.394 2.07l1.685.265c2.217.355 3.754 1.39 3.754 3.813 0 2.542-2.07 4.02-4.73 4.02-2.393 0-4.64-1.42-4.965-4.168a.39.39 0 0 1 .384-.443h1.005a.41.41 0 0 1 .385.325c.206 1.95 1.714 2.72 3.192 2.72 1.625 0 2.896-.799 2.896-2.424 0-1.449-1.034-1.951-2.394-2.217l-1.655-.296c-2.305-.384-3.754-1.507-3.754-3.606 0-2.453 2.128-3.96 4.7-3.96 2.04 0 4.315 1.152 4.758 3.901a.39.39 0 0 1-.384.443H36.65a.41.41 0 0 1-.384-.325c-.296-1.743-1.626-2.423-2.926-2.423ZM44.897 8.128c2.482 0 4.226 1.33 4.847 3.488.059.236-.118.502-.384.502h-1.153c-.177 0-.296-.118-.355-.266-.443-1.241-1.418-1.921-2.955-1.921-2.07 0-3.222 1.685-3.222 3.724 0 2.01 1.153 3.724 3.222 3.724 1.507 0 2.512-.71 2.955-1.92.06-.149.207-.267.355-.267h1.153c.266 0 .443.236.354.503-.65 2.246-2.364 3.487-4.847 3.487-3.192 0-5.202-2.453-5.202-5.497.03-3.074 2.069-5.557 5.232-5.557ZM51.636 17.35h2.482v-6.946h-2.217a.391.391 0 0 1-.384-.384v-.976c0-.207.178-.384.384-.384h3.015c.62 0 1.153.532 1.153 1.153v.266c.561-1.33 1.744-1.655 3.576-1.655.71 0 1.183.118 1.449.207.147.059.236.207.236.354v1.064c0 .266-.236.444-.502.355-.326-.118-.798-.207-1.39-.207-1.95 0-3.34 1.33-3.34 3.665v3.488h3.193c.207 0 .384.177.384.384v.975a.391.391 0 0 1-.384.385h-7.655a.391.391 0 0 1-.385-.385v-.975c0-.207.178-.384.385-.384ZM62.808 13.596c0-3.015 2.01-5.497 5.26-5.497 3.252 0 5.262 2.453 5.262 5.497 0 3.015-2.01 5.498-5.261 5.498-3.28 0-5.261-2.454-5.261-5.498Zm5.231 3.724c2.099 0 3.281-1.684 3.281-3.724 0-2.01-1.212-3.724-3.28-3.724-2.1 0-3.281 1.685-3.281 3.724 0 2.04 1.211 3.724 3.28 3.724ZM77.645 17.438h3.015c.207 0 .384.178.384.385v.916a.391.391 0 0 1-.384.384h-4.492a.391.391 0 0 1-.385-.384V6.857h-1.507a.391.391 0 0 1-.384-.384v-.916c0-.207.177-.385.384-.385h2.217c.62 0 1.152.532 1.152 1.153v11.113ZM84.296 17.438h3.014c.207 0 .385.178.385.385v.916a.391.391 0 0 1-.385.384h-4.492a.391.391 0 0 1-.385-.384V6.857h-1.507a.391.391 0 0 1-.384-.384v-.916c0-.207.177-.385.384-.385h2.217c.62 0 1.153.532 1.153 1.153v11.113ZM3.044 9.251c-.945-.886-1.596-2.04-1.596-3.399v-.148c.089-2.305 1.98-4.197 4.286-4.256h14.749c.384.03.68.296.68.68V14.63c.325.06.502.119.827.207.266.09.62.296.62.296V2.128A2.164 2.164 0 0 0 20.454 0H5.734A5.841 5.841 0 0 0 0 5.852c0 1.862.857 3.458 2.217 4.552.088.089.177.177.443.177.443 0 .739-.354.71-.71 0-.324-.119-.442-.326-.62Z"/>
    <path d="M20.099 15.458H8.542c-.769 0-1.39.62-1.39 1.419v1.655c.03.768.68 1.419 1.449 1.419h.857v-1.419h-.857v-1.626h.473c1.448 0 2.542 1.36 2.542 2.808 0 1.3-1.182 2.926-3.133 2.808-1.744-.118-2.69-1.655-2.69-2.808V5.616c0-.621-.532-1.153-1.153-1.153H3.488v1.448h.857v13.833c-.06 2.808 2.01 4.226 4.138 4.226l11.645.03a4.257 4.257 0 0 0 4.256-4.256c-.03-2.394-1.921-4.286-4.285-4.286Zm2.807 4.345c-.059 1.507-1.3 2.72-2.807 2.72L12 22.492a4.188 4.188 0 0 0 1.034-2.779c0-1.655-.975-2.808-.975-2.808h8.07a2.826 2.826 0 0 1 2.807 2.808l-.03.089ZM16.995 6.148h-8.72V4.699h8.72a.72.72 0 0 1 .71.71c0 .414-.296.739-.71.739Z"/>
    <path d="M16.995 12.946h-8.72v-1.448h8.72a.72.72 0 0 1 .71.709c0 .414-.296.739-.71.739ZM18.532 9.547H8.276V8.099h10.256a.72.72 0 0 1 .71.709.726.726 0 0 1-.71.739Z"/>
  </g>
  <defs>
    <clipPath id="scroll-dark_svg__a">
      <path fill="#fff" d="M0 0h87.695v24H0z"/>
    </clipPath>
  </defs>
</svg>
