<svg xmlns="http://www.w3.org/2000/svg" fill="none" viewBox="0 0 87 24">
  <g clip-path="url(#shape_svg__a)">
    <g fill="#000" clip-path="url(#shape_svg__b)">
      <path d="M12 24c6.628 0 12-5.372 12-12 0-6.627-5.372-12-12-12C5.373 0 0 5.373 0 12c0 6.628 5.373 12 12 12ZM33.201 18.566a7.124 7.124 0 0 1-1.838-.35 5.488 5.488 0 0 1-1.569-.805 3.538 3.538 0 0 1-1.05-1.221l2.515-.977c.098.148.257.305.477.472a2.983 2.983 0 0 0 1.795.582c.31 0 .604-.038.885-.116.281-.078.509-.198.684-.361a.824.824 0 0 0 .263-.633.746.746 0 0 0-.312-.638 2.218 2.218 0 0 0-.781-.344 47.39 47.39 0 0 0-.91-.217 9.38 9.38 0 0 1-2.155-.655c-.664-.296-1.197-.679-1.6-1.149S29 11.116 29 10.45c0-.733.214-1.366.641-1.898.428-.533.985-.944 1.673-1.233a5.7 5.7 0 0 1 2.23-.433c.968 0 1.857.183 2.668.55.81.366 1.45.882 1.923 1.549l-2.357 1.265a1.924 1.924 0 0 0-.476-.494 2.893 2.893 0 0 0-.696-.377c-.261-.1-.534-.157-.819-.172-.366-.015-.7.015-1.001.088a1.55 1.55 0 0 0-.727.378c-.183.177-.274.414-.274.71 0 .282.122.49.366.628.244.137.54.242.885.316.346.074.678.155.995.244.717.215 1.39.478 2.022.789.63.31 1.137.692 1.52 1.143.383.452.566.992.55 1.621 0 .718-.237 1.345-.709 1.882-.472.537-1.08.945-1.825 1.226a5.578 5.578 0 0 1-2.388.334ZM49.221 11.35v7.016h-2.709V12.06a2.28 2.28 0 0 0-.322-1.194 2.411 2.411 0 0 0-.86-.854 2.311 2.311 0 0 0-1.194-.317c-.436 0-.834.106-1.193.317-.36.21-.644.495-.855.854a2.312 2.312 0 0 0-.316 1.194v6.306h-2.71l-.01-16.653h2.709l.01 6.539c.378-.4.83-.716 1.355-.95a4.14 4.14 0 0 1 1.699-.349c.806 0 1.543.198 2.209.594a4.518 4.518 0 0 1 1.593 1.587c.396.663.594 1.401.594 2.215ZM59.146 7.264h2.709v11.102h-2.709l-.122-1.377a3.605 3.605 0 0 1-1.205 1.205c-.5.307-1.09.46-1.77.46a5.747 5.747 0 0 1-2.31-.466 6.036 6.036 0 0 1-3.17-3.186 5.807 5.807 0 0 1-.46-2.31 5.7 5.7 0 0 1 1.666-4.063 5.78 5.78 0 0 1 1.82-1.232 5.562 5.562 0 0 1 2.22-.444c.733 0 1.39.163 1.971.488.581.326 1.075.74 1.482 1.244l-.122-1.421Zm-3.164 8.781c.577 0 1.088-.144 1.532-.433a2.99 2.99 0 0 0 1.044-1.17 3.522 3.522 0 0 0 .377-1.627c0-.6-.126-1.145-.377-1.638a2.977 2.977 0 0 0-1.05-1.171 2.756 2.756 0 0 0-1.526-.433c-.57 0-1.09.146-1.56.439a3.245 3.245 0 0 0-1.538 2.803 3.241 3.241 0 0 0 1.549 2.798c.47.288.986.432 1.55.432ZM65.674 23.917h-2.709V7.264h2.709v1.41a4.413 4.413 0 0 1 1.338-1.227c.529-.314 1.149-.472 1.86-.472.813 0 1.572.152 2.275.455a5.935 5.935 0 0 1 1.86 1.26 5.855 5.855 0 0 1 1.254 1.86c.3.703.45 1.458.45 2.265a5.818 5.818 0 0 1-1.704 4.147 5.929 5.929 0 0 1-1.86 1.26 5.685 5.685 0 0 1-2.276.455c-.71 0-1.33-.158-1.86-.472a4.408 4.408 0 0 1-1.337-1.227v6.939Zm3.164-14.333c-.562 0-1.066.146-1.51.439a3.044 3.044 0 0 0-1.043 1.17 3.488 3.488 0 0 0-.378 1.622c0 .592.126 1.134.378 1.626.251.493.6.885 1.043 1.177.444.292.948.438 1.51.438a2.95 2.95 0 0 0 1.565-.432 3.215 3.215 0 0 0 1.133-1.171 3.242 3.242 0 0 0 .422-1.638 3.19 3.19 0 0 0-.422-1.621 3.29 3.29 0 0 0-1.127-1.171 2.914 2.914 0 0 0-1.571-.439ZM80.861 18.654a5.16 5.16 0 0 1-2.792-.788 5.823 5.823 0 0 1-2.01-2.12c-.499-.888-.749-1.869-.749-2.942a5.985 5.985 0 0 1 1.626-4.135 5.552 5.552 0 0 1 1.772-1.26 5.183 5.183 0 0 1 2.153-.456c.866 0 1.66.183 2.382.55a5.478 5.478 0 0 1 1.837 1.504c.503.637.87 1.362 1.099 2.176.23.814.281 1.665.156 2.553h-8.116c.104.415.274.787.51 1.116.237.33.537.592.9.788.363.197.773.298 1.232.306a2.39 2.39 0 0 0 1.294-.339c.388-.233.712-.55.971-.95l2.764.645a5.895 5.895 0 0 1-2.02 2.414 5.133 5.133 0 0 1-3.009.938Zm-2.73-6.95h5.461a2.901 2.901 0 0 0-.516-1.204 3.01 3.01 0 0 0-.971-.86 2.514 2.514 0 0 0-1.244-.322c-.444 0-.855.105-1.232.316-.378.211-.698.496-.96.855-.263.36-.443.764-.539 1.216Z"/>
    </g>
  </g>
  <defs>
    <clipPath id="shape_svg__a">
      <path fill="#fff" d="M0 0h86.401v24H0z"/>
    </clipPath>
    <clipPath id="shape_svg__b">
      <path fill="#fff" d="M0 0h86.401v24H0z"/>
    </clipPath>
  </defs>
</svg>
