<svg xmlns="http://www.w3.org/2000/svg" xmlns:xlink="http://www.w3.org/1999/xlink" viewBox="0 0 804 318">
  <defs>
    <path id="spotlight_svg__a" d="M0 0h804v318H0V0Zm1 1v316h802V1H1Z"/>
    <path id="spotlight_svg__b" d="M1 1h802v316H1V1Zm20 20v276h762V21H21Z"/>
    <path id="spotlight_svg__c" d="M21 21h762v276H21V21Zm40.17 1c-.09 2.96-.33 5.86-.77 8.79-.56 3.92-.23 7.77-.63 11.72-1.39 11.04-.6 22.37-.81 33.49-.29 7.09 1.13 13.98 1.18 21.06 1.77 16.76 4.19 33.68 10.46 49.44 12.16 34.54 29.76 68.9 55.93 94.96 20.61 20.47 46.43 35.06 75.43 39.13 13.12 2.07 26.09.93 39.1-1.19 4.48-.77 8.74-2.19 13.08-3.47 7.09 1.33 14.22 2.06 21.44 2.12-7.91 6.99-16.4 13.01-25.75 17.94 3.52-.08 7.19.29 10.68-.2 8.12-4.85 15.48-11.24 22.06-18.01 9.89-.67 19.66-2.59 29-5.93-3.01 8.41-6.76 16.39-11.22 24.13l5.14.03c4.35-7.86 8.11-16 10.85-24.57 11.4 4.25 23.65 6.38 35.81 6.56-.56 5.99-.86 12.1-1.98 18.01 1.65 0 3.3-.01 4.95-.02.96-5.73 1.28-11.45 1.35-17.26.45 5.75.58 11.51.54 17.27H782V22c-147-.01-294 .02-441-.01-7.63-.49-14.61 1.8-22.08 3.75-29.49 9.76-57.41 22.01-82.67 40.31-12.21 5.2-23.67 11.72-33.56 20.65-16.04 14.21-27.72 33.34-33.12 54.06-5.46 20.73-4.63 42.99 2.35 63.25 7.44 21.8 21.84 40.95 40.69 54.18-14.97-5.05-27.02-14.75-37.34-26.47-16.4-18.95-26.34-42.51-30.01-67.22-4.48-30.29.45-61.07 10.53-89.76 6.49-18.87 15.88-36.49 27.41-52.76-2.98.02-5.97-.04-8.95.07-4.96 7.43-8.11 15.38-11.94 23.39-12.17 26.86-21.48 56.06-23.72 85.58-2.85 34.44 5.24 70.07 27.1 97.38 7.28 9.53 16.38 16.86 25.96 23.92 10.72 7.52 22.93 12.06 35.7 14.63 5.94 2.67 11.92 5.15 18.21 6.87-4.55.43-9.02 1.49-13.57 1.98-34.2 2.82-67.79-10.08-93.7-32.05-23.59-19.77-41.12-46.79-53.14-74.91-14.23-33.66-18.52-71.7-17.69-107.98.18-13.01 1.34-25.92 2.58-38.86h-8.87ZM22 237v9.56c13.08 12.38 27.31 24.3 42.66 33.78 8.97 5.66 19.14 9.78 28.79 14.25 4.24 2.23 8.3 1.22 12.96 1.4C73.87 282.7 46.72 261.62 22 237Z"/>
    <path id="spotlight_svg__d" d="M61.17 22h8.87c-1.24 12.94-2.4 25.85-2.58 38.86-.83 36.28 3.46 74.32 17.69 107.98 12.02 28.12 29.55 55.14 53.14 74.91 25.91 21.97 59.5 34.87 93.7 32.05 4.55-.49 9.02-1.55 13.57-1.98 2.85.75 5.69 1.52 8.58 2.11-4.34 1.28-8.6 2.7-13.08 3.47-13.01 2.12-25.98 3.26-39.1 1.19-29-4.07-54.82-18.66-75.43-39.13-26.17-26.06-43.77-60.42-55.93-94.96-6.27-15.76-8.69-32.68-10.46-49.44-.05-7.08-1.47-13.97-1.18-21.06.21-11.12-.58-22.45.81-33.49.4-3.95.07-7.8.63-11.72.44-2.93.68-5.83.77-8.79Z"/>
    <path id="spotlight_svg__e" d="M174.25 22.05c2.98-.11 5.97-.05 8.95-.07-11.53 16.27-20.92 33.89-27.41 52.76-10.08 28.69-15.01 59.47-10.53 89.76 3.67 24.71 13.61 48.27 30.01 67.22 10.32 11.72 22.37 21.42 37.34 26.47 4.74 3.23 9.66 6.1 14.74 8.76-12.77-2.57-24.98-7.11-35.7-14.63-9.58-7.06-18.68-14.39-25.96-23.92-21.86-27.31-29.95-62.94-27.1-97.38 2.24-29.52 11.55-58.72 23.72-85.58 3.83-8.01 6.98-15.96 11.94-23.39Z"/>
    <path id="spotlight_svg__f" d="M341 21.99c147 .03 294 0 441 .01v274H357.01c.04-5.76-.09-11.52-.54-17.27-.07 5.81-.39 11.53-1.35 17.26-1.65.01-3.3.02-4.95.02 1.12-5.91 1.42-12.02 1.98-18.01 12.77.14 25.56-1.91 37.59-6.21 2.21-.78 3.27-.81 5.48-.01 23.23 8.29 49.3 8.3 72.53.01 3.47-1.52 5.94.36 9.27 1.25 20.95 6.62 44.04 6.62 64.99-.01 3.28-.88 5.79-2.75 9.21-1.25 23.23 8.29 49.3 8.3 72.53.01 3.47-1.52 5.94.36 9.27 1.25 21.73 6.88 45.62 6.57 67.22-.7 16.04-5.34 30.72-14.48 42.71-26.39 12.66-12.73 22.17-28.51 27.35-45.72 6.11-20.05 6.27-41.84.44-61.97-5.08-17.78-14.77-34.11-27.79-47.21-12.9-12.83-28.93-22.42-46.4-27.55-20.11-5.99-41.93-6.01-62.05-.01-2.55.74-5.06 1.82-7.66 2.35-2.29-.07-4.63-1.24-6.83-1.87-22.24-7.04-46.82-6.59-68.79 1.25-2.2.79-3.24.79-5.44 0-23.25-8.29-49.31-8.3-72.56 0-2.2.79-3.24.79-5.44 0-22.95-8.19-48.78-8.32-71.78-.25-1.89.59-3.48 1.29-5.44.49-10.81-3.84-22.09-6.06-33.56-6.41-.02-10.72.05-21.44-.04-32.15-3.33.5-6.65 1.01-10.01 1.23-24.16 2.81-47.74 8.63-69.78 19.07-9.37 4.32-18.27 9.46-27.12 14.73-4.64 1.25-9.22 2.69-13.8 4.12 25.26-18.3 53.18-30.55 82.67-40.31 7.47-1.95 14.45-4.24 22.08-3.75Zm425.55 250.8c-5.73.92-9.58 7.45-7.09 12.82 2.09 5.3 8.72 7.61 13.48 4.23 5.32-3.27 5.3-12.39-.07-15.59-1.88-1.26-4.08-1.81-6.32-1.46Z"/>
    <path id="spotlight_svg__g" d="M356.96 26.9c.09 10.71.02 21.43.04 32.15-13.82-.44-27.55 1.75-40.56 6.41-1.98.84-3.54.1-5.44-.5-19.56-6.87-40.79-7.67-60.95-3.03 8.85-5.27 17.75-10.41 27.12-14.73 22.04-10.44 45.62-16.26 69.78-19.07 3.36-.22 6.68-.73 10.01-1.23Z"/>
    <path id="spotlight_svg__h" d="M311 64.96c1.9.6 3.46 1.34 5.44.5 13.01-4.66 26.74-6.85 40.56-6.41 11.47.35 22.75 2.57 33.56 6.41 1.96.8 3.55.1 5.44-.49 23-8.07 48.83-7.94 71.78.25 2.2.79 3.24.79 5.44 0 23.25-8.3 49.31-8.29 72.56 0 2.2.79 3.24.79 5.44 0 21.97-7.84 46.55-8.29 68.79-1.25 2.2.63 4.54 1.8 6.83 1.87 2.6-.53 5.11-1.61 7.66-2.35 20.12-6 41.94-5.98 62.05.01 17.47 5.13 33.5 14.72 46.4 27.55 13.02 13.1 22.71 29.43 27.79 47.21 5.83 20.13 5.67 41.92-.44 61.97-5.18 17.21-14.69 32.99-27.35 45.72-11.99 11.91-26.67 21.05-42.71 26.39-21.6 7.27-45.49 7.58-67.22.7-3.33-.89-5.8-2.77-9.27-1.25-23.23 8.29-49.3 8.28-72.53-.01-3.42-1.5-5.93.37-9.21 1.25-20.95 6.63-44.04 6.63-64.99.01-3.33-.89-5.8-2.77-9.27-1.25-23.23 8.29-49.3 8.28-72.53-.01-2.21-.8-3.27-.77-5.48.01-12.03 4.3-24.82 6.35-37.59 6.21-12.16-.18-24.41-2.31-35.81-6.56-1.73-.49-3.12-.14-4.77.41-9.34 3.34-19.11 5.26-29 5.93-2.33.12-4.66.19-6.99.27-7.22-.06-14.35-.79-21.44-2.12-2.89-.59-5.73-1.36-8.58-2.11-6.29-1.72-12.27-4.2-18.21-6.87-5.08-2.66-10-5.53-14.74-8.76-18.85-13.23-33.25-32.38-40.69-54.18-6.98-20.26-7.81-42.52-2.35-63.25 5.4-20.72 17.08-39.85 33.12-54.06 9.89-8.93 21.35-15.45 33.56-20.65 4.58-1.43 9.16-2.87 13.8-4.12 20.16-4.64 41.39-3.84 60.95 3.03Zm329.83 68.76c-.76-2.22-1.49-4.32-1.33-6.71.23-9.63 3.09-20.19 1.22-29.99-.5-2.2-1.27-4.34-3.86-4.55-3.06-.36-7.1-.93-9.93.51-2.46 2.28-3.45 6.35-4.14 9.52-1.87 10.37-1.56 21.22-2.72 31.72-2.47 23.86-5.14 47.87-7.28 71.78-.17 5.29.15 11.92 4.88 15.31 3.79 2.28 8.32-1.15 9.65-4.78 4.77-12.82 3.73-27.99 8.56-40.72 2.54-5.44 6.87-11.55 11.21-15.71 2.75-2.63 7.01-4.96 10.9-4.45 4.29 1.27 6.89 5.2 7.83 9.4 1.72 7.32 1.19 15.46 1.18 22.95.04 7.62-1.09 15.32-.62 22.88.3 3.39 1.02 6.69 4.32 8.35 2.88 1.38 7.39 3.57 10.51 2.02 2.62-1.63 3.72-5.64 4.43-8.46 2.35-11.21 2.58-23.34 3.29-34.76.53-12.3.94-25.79-2.16-37.78-1.72-6.03-5.03-13.03-10.48-16.53-3.86-2.54-7.88-2.31-12.3-2.25-6.43.17-12.72 2.62-17.1 7.41-1.84 2.02-3.6 3.59-6.06 4.84Zm-149.48-8.94c-3.03 24-6.29 48.09-8.4 72.18-.61 6.13-1.31 13.2 1.01 19.05.95 2.34 3.18 5.21 6.04 4.73 4.51-.22 8.1-4.26 9.44-8.31 1.94-5.72 2.51-12.23 3.23-18.21 3.06-24.98 5.6-50.06 6.86-75.2.3-6.35 1.05-13.61-.78-19.77-.89-2.62-2.5-6.01-5.75-5.95-3.81.02-6.4 3.92-7.54 7.14-2.62 7.66-2.95 16.35-4.11 24.34Zm34.03-31.38c-3.48 1.46-4.87 4.88-5.53 8.35-.62 3.86-.8 7.92-.19 11.8.44 1.7.76 3.69 2.77 4.11 3.52 1.13 8.25 1.32 11.85.57 2.37-.52 2.99-3.23 3.46-5.26.91-4.93 1.45-10.28.45-15.23-.51-1.78-1.04-4.07-3.29-4.17-3.03-.33-6.54-.94-9.52-.17Zm-60.08 29.31c-3.97-5.19.01-14.42-2.62-20.34-.86-1.98-2.54-1.31-4.16-.86-4.58 1.62-9.42 3.52-12.48 7.49-3.38 4.21-2.43 11.23-5.68 15.32-2.09 3.16-7.79 1.35-9.48 4.58-2.28 3.57-2.44 8.78-3.09 12.88-.4 3.57-1.11 8.38.83 11.6 1.25 2.39 4.87 2.54 6.76 4.22 1.65 2.13 1.56 4.84 1.49 7.39-.53 12.34-3.56 23.41-2.08 36.01.6 5.19 2.09 11.45 6.13 15.09 4.61 3.82 10.29 2.51 15.91 4.01 4.91 1.29 11.2 1.34 15.43-1.85 2.64-3.53 3.08-8.99 3.72-13.25.35-3.55 1-8.68-1.29-11.71-2.68-1.58-6.73-.8-9.74-1.12-3.21.01-6.23-2.74-7.59-5.47-1.29-3.57-.8-7.99-.4-11.7.56-4.06.89-8.23 1.88-12.22.87-3.03 2.41-6.18 5.51-7.42 3.72-1.51 8.95.64 12.57-1.4 1.91-.9 2.86-3.55 3.63-5.38 1.99-5.55 3.4-11.68 3-17.6-.2-1.65-.58-4.42-2.17-5.33-4.89-2.22-11.36-.63-16.08-2.94Zm266.56.63c-4.29-5.75-.43-14-2.69-20.51-.75-1.32-1.31-2.21-2.99-1.69-4.94 1.43-10.84 3.78-14 8.04-3.25 4.3-2.28 11.3-5.68 15.34-1.76 2.41-5.62 1.61-8.03 2.95-2.83 2.36-3.36 7.14-3.88 10.56-.49 4.49-1.85 10.24-.11 14.52 1.3 3.25 4.49 3.08 7.07 4.87 2.13 2.6 1.64 6.46 1.51 9.58-.91 12.78-3.87 24.52-1.44 37.52.82 4.35 2.73 9.71 6.55 12.3 4.46 2.88 9.34 1.88 14.66 3.22 5.13 1.33 11.05 1.47 15.57-1.65 2.67-3.1 3.1-8.48 3.75-12.39.39-3.81 1.33-9.7-1.33-12.86-3.4-1.61-8.04-.34-11.65-1.29-3.09-1.27-5.98-4.33-6.18-7.8-.59-5.48.61-11.36 1.27-16.81.59-3.9 1.52-8.6 4.9-11.08 4.4-3.2 10.68.68 15.09-2.9 1.79-2.03 2.74-4.97 3.55-7.51 1.46-4.98 2.59-10.54 1.94-15.73-.34-1.88-.81-4.17-2.93-4.75-4.81-1.31-10.02-1.08-14.95-1.93Zm-516.75 27.81c3.89-6.26 11.51-5.9 17.89-4.66 4.83.37 6.23 5.52 10.18 7.06 3.9.62 7.92.7 11.85.93 2.49.21 5.01-1.12 5.6-3.66 1.3-5.58.18-11.8-2.72-16.73-2.94-5.42-7.34-10.42-13.02-13.02-2.78-1.05-5.91-1.33-8.85-1.65-6.07-.56-12.66-.58-18.54 1.21-7.81 2.62-14.79 7.51-20.04 13.83-5.27 7.56-7.41 17.43-6.79 26.54.55 5.83 2.17 12.53 6.93 16.39 4.01 3.65 9.06 5.67 14.38 6.5 6.68.85 13.66.6 20.27 1.92 3.41.73 4.69 5 1.59 7.04-6.42 3.48-15.09 4.45-22.09 2.4-4.91-1.28-6.5-8.14-11.23-9.59-3.14-.95-6.78-1.77-10.05-1.18-3.32.68-5.54 3.47-6.14 6.71-.86 4.97.29 10.39 2.7 14.79 5.37 8.33 12.76 15.39 22.95 16.87 10.33 1.12 20.88-3.5 30.78-6.01 3.18-.86 6.29-.99 8.91-3.11 4.42-3.49 6.78-9.67 8.16-14.96 2.07-8.85 3.29-18.01.23-26.8-2.08-5.9-7.08-10.25-13.1-11.81-8.26-2.68-16.81-1.07-24.96-3.2-2.83-.88-5.66-2.3-4.89-5.81Zm368.07 57.4c2.66 4.56 1.17 9.12-1.22 13.41-2.04 3.65-5.51 7.88-9.95 8.35-2.02.37-3.76-.31-5.75-.71-3.89-1-7.86-.1-11.76-1.36-4.34-1.02-8.18-3.66-12.53-4.43-4.28-.28-5.96 3.73-7 7.15-1.33 5.54-1.85 11.78-.25 17.31.91 3.18 3.05 5.75 6.44 6.31 7.12.97 13.65 3.84 20.82 4.5 7.4 1.12 14.84.39 21.12-3.93 5.49-3.89 10.49-9.36 13.83-15.2 4.93-8.99 7.51-19.36 8.8-29.47 2.93-18.07 6.06-37.14 5.99-55.48-.13-7.95-.73-17.09-4.46-24.26-2.4-5.03-7.64-8.59-13.2-8.98-6.52-.65-13.33 3.62-19.83 2.07-2.46-.36-5.56-1.72-7.85-.47-6.86 3.02-13.37 8.14-17.72 14.25-5.96 10.65-10 22.58-11.93 34.63-1.54 9.86-1.23 19.72 3.21 28.82 2.62 5.41 6.53 9.14 10.46 13.54 2.49 2.72 5.73 5.07 9.56 5.13 9.63-1.4 14.77-7.82 23.22-11.18ZM285.98 215c4.46 2.33 7.63 5.91 12.25 7.85 3.25 1.33 6.69 1.93 10 .39 13.61-6.8 24.83-18.04 31.06-31.97 3.7-8.71 5.97-17.74 4.9-27.28-.73-8.18-3.79-15.1-6.39-22.76-2.01-5.29-4.75-11.21-9.09-14.98-4.06-3.58-9.85-1.84-14.72-1.7-6.11.56-11.13-1.88-17.01-2.25-4.44-.24-8.54 3.25-12.93 3.25-2.81.15-6.02-.44-8.47 1.09-2.91 1.7-3.79 5.26-4.49 8.31-1.71 8.5-2.31 17.41-3.33 26.02a853.372 853.372 0 0 0-4.95 61.03c-.36 9.18-1.99 18.7-1.37 27.83.41 3.75 1.07 7.98 4.33 10.37 2.03 1.55 5.14 3.72 7.72 2.22 2.5-1.81 3.75-5.54 4.59-8.4 2.87-10.62 3.52-22.14 5.16-33.01.26-2.35 1.51-4.08 2.74-6.01Zm92.8 7.66c3.47.42 6.42 1.57 10 .89 6.01-1.09 11.44-4.93 16.28-8.49 6.35-4.95 9.28-12.75 11.94-20.07 5.8-15.79 8.05-33.51 3.93-49.97-1.38-5.97-4.93-11.41-9.58-15.36-6.96-5.42-15.69-7.14-24.36-6.56-5.9.72-11.31 1.06-16.35 4.54-9.35 5.96-15.65 17.31-19.62 27.38-5.05 13.48-6.32 29.16-2.06 43.01 2.68 8.93 8.2 16.82 15.94 22.07 4.52 2.7 8.9 2.18 13.88 2.56ZM514.96 147c-2.59 19.03-4.11 38.09-5.85 57.21-.23 3.98-.65 9.47 1.8 12.88 1.46 2.05 3.84 1.91 6.09 1.97 2.41-.15 5.31.05 6.93-2.1 2.37-2.86 2.8-7.45 3.38-10.99 3.24-20.93 5.04-41.97 7.54-62.98.25-3.61.92-9.17-1.84-12-2.61-2.63-5.76-1.46-9-1.2-2.3.46-4.56 0-5.84 2.39-2.36 4.24-2.53 10.08-3.21 14.82Z"/>
    <path id="spotlight_svg__i" d="M636.86 92.47c2.59.21 3.36 2.35 3.86 4.55 1.87 9.8-.99 20.36-1.22 29.99-.16 2.39.57 4.49 1.33 6.71 2.46-1.25 4.22-2.82 6.06-4.84 4.38-4.79 10.67-7.24 17.1-7.41 4.42-.06 8.44-.29 12.3 2.25 5.45 3.5 8.76 10.5 10.48 16.53 3.1 11.99 2.69 25.48 2.16 37.78-.71 11.42-.94 23.55-3.29 34.76-.71 2.82-1.81 6.83-4.43 8.46-3.12 1.55-7.63-.64-10.51-2.02-3.3-1.66-4.02-4.96-4.32-8.35-.47-7.56.66-15.26.62-22.88.01-7.49.54-15.63-1.18-22.95-.94-4.2-3.54-8.13-7.83-9.4-3.89-.51-8.15 1.82-10.9 4.45-4.34 4.16-8.67 10.27-11.21 15.71-4.83 12.73-3.79 27.9-8.56 40.72-1.33 3.63-5.86 7.06-9.65 4.78-4.73-3.39-5.05-10.02-4.88-15.31 2.14-23.91 4.81-47.92 7.28-71.78 1.16-10.5.85-21.35 2.72-31.72.69-3.17 1.68-7.24 4.14-9.52 2.83-1.44 6.87-.87 9.93-.51Z"/>
    <path id="spotlight_svg__j" d="M503 93.3c3.25-.06 4.86 3.33 5.75 5.95 1.83 6.16 1.08 13.42.78 19.77-1.26 25.14-3.8 50.22-6.86 75.2-.72 5.98-1.29 12.49-3.23 18.21-1.34 4.05-4.93 8.09-9.44 8.31-2.86.48-5.09-2.39-6.04-4.73-2.32-5.85-1.62-12.92-1.01-19.05 2.11-24.09 5.37-48.18 8.4-72.18 1.16-7.99 1.49-16.68 4.11-24.34 1.14-3.22 3.73-7.12 7.54-7.14Z"/>
    <path id="spotlight_svg__k" d="M525.38 93.4c2.98-.77 6.49-.16 9.52.17 2.25.1 2.78 2.39 3.29 4.17 1 4.95.46 10.3-.45 15.23-.47 2.03-1.09 4.74-3.46 5.26-3.6.75-8.33.56-11.85-.57-2.01-.42-2.33-2.41-2.77-4.11-.61-3.88-.43-7.94.19-11.8.66-3.47 2.05-6.89 5.53-8.35Z"/>
    <path id="spotlight_svg__l" d="M462.68 102.37c2.63 5.92-1.35 15.15 2.62 20.34 4.72 2.31 11.19.72 16.08 2.94 1.59.91 1.97 3.68 2.17 5.33.4 5.92-1.01 12.05-3 17.6-.77 1.83-1.72 4.48-3.63 5.38-3.62 2.04-8.85-.11-12.57 1.4-3.1 1.24-4.64 4.39-5.51 7.42-.99 3.99-1.32 8.16-1.88 12.22-.4 3.71-.89 8.13.4 11.7 1.36 2.73 4.38 5.48 7.59 5.47 3.01.32 7.06-.46 9.74 1.12 2.29 3.03 1.64 8.16 1.29 11.71-.64 4.26-1.08 9.72-3.72 13.25-4.23 3.19-10.52 3.14-15.43 1.85-5.62-1.5-11.3-.19-15.91-4.01-4.04-3.64-5.53-9.9-6.13-15.09-1.48-12.6 1.55-23.67 2.08-36.01.07-2.55.16-5.26-1.49-7.39-1.89-1.68-5.51-1.83-6.76-4.22-1.94-3.22-1.23-8.03-.83-11.6.65-4.1.81-9.31 3.09-12.88 1.69-3.23 7.39-1.42 9.48-4.58 3.25-4.09 2.3-11.11 5.68-15.32 3.06-3.97 7.9-5.87 12.48-7.49 1.62-.45 3.3-1.12 4.16.86Z"/>
    <path id="spotlight_svg__m" d="M726.18 101.14c1.68-.52 2.24.37 2.99 1.69 2.26 6.51-1.6 14.76 2.69 20.51 4.93.85 10.14.62 14.95 1.93 2.12.58 2.59 2.87 2.93 4.75.65 5.19-.48 10.75-1.94 15.73-.81 2.54-1.76 5.48-3.55 7.51-4.41 3.58-10.69-.3-15.09 2.9-3.38 2.48-4.31 7.18-4.9 11.08-.66 5.45-1.86 11.33-1.27 16.81.2 3.47 3.09 6.53 6.18 7.8 3.61.95 8.25-.32 11.65 1.29 2.66 3.16 1.72 9.05 1.33 12.86-.65 3.91-1.08 9.29-3.75 12.39-4.52 3.12-10.44 2.98-15.57 1.65-5.32-1.34-10.2-.34-14.66-3.22-3.82-2.59-5.73-7.95-6.55-12.3-2.43-13 .53-24.74 1.44-37.52.13-3.12.62-6.98-1.51-9.58-2.58-1.79-5.77-1.62-7.07-4.87-1.74-4.28-.38-10.03.11-14.52.52-3.42 1.05-8.2 3.88-10.56 2.41-1.34 6.27-.54 8.03-2.95 3.4-4.04 2.43-11.04 5.68-15.34 3.16-4.26 9.06-6.61 14-8.04Z"/>
    <path id="spotlight_svg__n" d="M236.04 119.42c2.94.32 6.07.6 8.85 1.65 5.68 2.6 10.08 7.6 13.02 13.02 2.9 4.93 4.02 11.15 2.72 16.73-.59 2.54-3.11 3.87-5.6 3.66-3.93-.23-7.95-.31-11.85-.93-3.95-1.54-5.35-6.69-10.18-7.06-6.38-1.24-14-1.6-17.89 4.66-.77 3.51 2.06 4.93 4.89 5.81 8.15 2.13 16.7.52 24.96 3.2 6.02 1.56 11.02 5.91 13.1 11.81 3.06 8.79 1.84 17.95-.23 26.8-1.38 5.29-3.74 11.47-8.16 14.96-2.62 2.12-5.73 2.25-8.91 3.11-9.9 2.51-20.45 7.13-30.78 6.01-10.19-1.48-17.58-8.54-22.95-16.87-2.41-4.4-3.56-9.82-2.7-14.79.6-3.24 2.82-6.03 6.14-6.71 3.27-.59 6.91.23 10.05 1.18 4.73 1.45 6.32 8.31 11.23 9.59 7 2.05 15.67 1.08 22.09-2.4 3.1-2.04 1.82-6.31-1.59-7.04-6.61-1.32-13.59-1.07-20.27-1.92-5.32-.83-10.37-2.85-14.38-6.5-4.76-3.86-6.38-10.56-6.93-16.39-.62-9.11 1.52-18.98 6.79-26.54 5.25-6.32 12.23-11.21 20.04-13.83 5.88-1.79 12.47-1.77 18.54-1.21Z"/>
    <path id="spotlight_svg__o" d="M594.06 121.76c5.56.39 10.8 3.95 13.2 8.98 3.73 7.17 4.33 16.31 4.46 24.26.07 18.34-3.06 37.41-5.99 55.48-1.29 10.11-3.87 20.48-8.8 29.47-3.34 5.84-8.34 11.31-13.83 15.2-6.28 4.32-13.72 5.05-21.12 3.93-7.17-.66-13.7-3.53-20.82-4.5-3.39-.56-5.53-3.13-6.44-6.31-1.6-5.53-1.08-11.77.25-17.31 1.04-3.42 2.72-7.43 7-7.15 4.35.77 8.19 3.41 12.53 4.43 3.9 1.26 7.87.36 11.76 1.36 1.99.4 3.73 1.08 5.75.71 4.44-.47 7.91-4.7 9.95-8.35 2.39-4.29 3.88-8.85 1.22-13.41-8.45 3.36-13.59 9.78-23.22 11.18-3.83-.06-7.07-2.41-9.56-5.13-3.93-4.4-7.84-8.13-10.46-13.54-4.44-9.1-4.75-18.96-3.21-28.82 1.93-12.05 5.97-23.98 11.93-34.63 4.35-6.11 10.86-11.23 17.72-14.25 2.29-1.25 5.39.11 7.85.47 6.5 1.55 13.31-2.72 19.83-2.07Zm-18.55 31.07c-4.94 2.05-10.79 4.24-14.38 8.33-5.63 5.7-4.84 16.44 1.23 21.49 5.16 2.76 11.85 4.19 17.54 2.29 3.87-1.16 7.4-4.26 8.74-8.1 1.14-4.43.79-9.35-.07-13.8-.7-3.73-2.76-7.52-5.87-9.77-2.09-1.51-4.87-1.05-7.19-.44Z"/>
    <path id="spotlight_svg__p" d="M296.98 122.3c5.88.37 10.9 2.81 17.01 2.25 4.87-.14 10.66-1.88 14.72 1.7 4.34 3.77 7.08 9.69 9.09 14.98 2.6 7.66 5.66 14.58 6.39 22.76 1.07 9.54-1.2 18.57-4.9 27.28-6.23 13.93-17.45 25.17-31.06 31.97-3.31 1.54-6.75.94-10-.39-4.62-1.94-7.79-5.52-12.25-7.85-1.23 1.93-2.48 3.66-2.74 6.01-1.64 10.87-2.29 22.39-5.16 33.01-.84 2.86-2.09 6.59-4.59 8.4-2.58 1.5-5.69-.67-7.72-2.22-3.26-2.39-3.92-6.62-4.33-10.37-.62-9.13 1.01-18.65 1.37-27.83.92-20.4 2.57-40.75 4.95-61.03 1.02-8.61 1.62-17.52 3.33-26.02.7-3.05 1.58-6.61 4.49-8.31 2.45-1.53 5.66-.94 8.47-1.09 4.39 0 8.49-3.49 12.93-3.25Zm8.03 67.27c4.22.14 7.74.69 11.05-2.5 3.69-4.19 4.73-10.68 4.25-16.07-.61-5.73-1.62-11.23-5.92-15.42-3.16-3.37-7.81-4.2-12.21-3.32-2.66.81-4.97 3.13-6.75 5.18-2.65 3.16-5.43 6.48-6.46 10.57-1.61 6.11.27 13.11 3.76 18.25 2.77 4 8.09 3.01 12.28 3.31Z"/>
    <path id="spotlight_svg__q" d="M386.99 123.1c8.67-.58 17.4 1.14 24.36 6.56 4.65 3.95 8.2 9.39 9.58 15.36 4.12 16.46 1.87 34.18-3.93 49.97-2.66 7.32-5.59 15.12-11.94 20.07-4.84 3.56-10.27 7.4-16.28 8.49-3.58.68-6.53-.47-10-.89-4.98-.38-9.36.14-13.88-2.56-7.74-5.25-13.26-13.14-15.94-22.07-4.26-13.85-2.99-29.53 2.06-43.01 3.97-10.07 10.27-21.42 19.62-27.38 5.04-3.48 10.45-3.82 16.35-4.54Zm-6.7 28.98c-5.19 1.13-7.89 6.04-9.47 10.67-2.07 7.36-1.64 15.84 3.48 21.92 4.01 5.23 10.37 8.3 16.96 6.64 4.59-1.68 7.53-5.68 8.82-10.28 2.1-7.29-.12-15.04-3.49-21.58-1.33-2.41-2.96-4.47-5.72-5.25-3.33-.99-7.08-2.37-10.58-2.12Z"/>
    <path id="spotlight_svg__r" d="M533.01 130.99c2.76 2.83 2.09 8.39 1.84 12-2.5 21.01-4.3 42.05-7.54 62.98-.58 3.54-1.01 8.13-3.38 10.99-1.62 2.15-4.52 1.95-6.93 2.1-2.25-.06-4.63.08-6.09-1.97-2.45-3.41-2.03-8.9-1.8-12.88 1.74-19.12 3.26-38.18 5.85-57.21.68-4.74.85-10.58 3.21-14.82 1.28-2.39 3.54-1.93 5.84-2.39 3.24-.26 6.39-1.43 9 1.2Z"/>
    <path id="spotlight_svg__s" d="M302.18 152.26c4.4-.88 9.05-.05 12.21 3.32 4.3 4.19 5.31 9.69 5.92 15.42.48 5.39-.56 11.88-4.25 16.07-3.31 3.19-6.83 2.64-11.05 2.5-4.19-.3-9.51.69-12.28-3.31-3.49-5.14-5.37-12.14-3.76-18.25 1.03-4.09 3.81-7.41 6.46-10.57 1.78-2.05 4.09-4.37 6.75-5.18Z"/>
    <path id="spotlight_svg__t" d="M380.29 152.08c3.5-.25 7.25 1.13 10.58 2.12 2.76.78 4.39 2.84 5.72 5.25 3.37 6.54 5.59 14.29 3.49 21.58-1.29 4.6-4.23 8.6-8.82 10.28-6.59 1.66-12.95-1.41-16.96-6.64-5.12-6.08-5.55-14.56-3.48-21.92 1.58-4.63 4.28-9.54 9.47-10.67Z"/>
    <path id="spotlight_svg__u" d="M575.51 152.83c2.32-.61 5.1-1.07 7.19.44 3.11 2.25 5.17 6.04 5.87 9.77.86 4.45 1.21 9.37.07 13.8-1.34 3.84-4.87 6.94-8.74 8.1-5.69 1.9-12.38.47-17.54-2.29-6.07-5.05-6.86-15.79-1.23-21.49 3.59-4.09 9.44-6.28 14.38-8.33Z"/>
    <path id="spotlight_svg__v" d="M22 237c24.72 24.62 51.87 45.7 84.41 58.99-4.66-.18-8.72.83-12.96-1.4-9.65-4.47-19.82-8.59-28.79-14.25-15.35-9.48-29.58-21.4-42.66-33.78V237Z"/>
    <path id="spotlight_svg__w" d="M316.34 271.44c-2.74 8.57-6.5 16.71-10.85 24.57l-5.14-.03c4.46-7.74 8.21-15.72 11.22-24.13 1.65-.55 3.04-.9 4.77-.41Z"/>
    <path id="spotlight_svg__x" d="M766.55 272.79c2.24-.35 4.44.2 6.32 1.46 5.37 3.2 5.39 12.32.07 15.59-4.76 3.38-11.39 1.07-13.48-4.23-2.49-5.37 1.36-11.9 7.09-12.82Zm-.47 1.22c-4.95 1.04-7.89 6.91-5.61 11.49 2.04 4.74 8.14 6.24 12.28 3.25 3.9-2.83 4.34-9.12.96-12.5-1.9-2.01-4.94-2.91-7.63-2.24Z"/>
    <path id="spotlight_svg__y" d="M766.08 274.01c2.69-.67 5.73.23 7.63 2.24 3.38 3.38 2.94 9.67-.96 12.5-4.14 2.99-10.24 1.49-12.28-3.25-2.28-4.58.66-10.45 5.61-11.49Zm-3.78 5.18c.61.52 1.21 1.05 1.8 1.59.16 1.61.31 3.22.46 4.84 1.04-1.68.83-3.43.94-5.33l2.14-.27c.09 1.86.31 3.71.53 5.56l.9-2.65c.61.87 1.21 1.73 1.82 2.59l.41-3.89 1.52 4.05c.1-2.29.1-4.58.06-6.87-1.37.56-2.05 1.74-2.05 3.55-.51-1.02-1.03-2.03-1.55-3.04-2.33-.02-4.65-.02-6.98-.13Z"/>
    <path id="spotlight_svg__z" d="M275.58 278.05c2.33-.08 4.66-.15 6.99-.27-6.58 6.77-13.94 13.16-22.06 18.01-3.49.49-7.16.12-10.68.2 9.35-4.93 17.84-10.95 25.75-17.94Z"/>
    <path id="spotlight_svg__A" d="M762.3 279.19c2.33.11 4.65.11 6.98.13.52 1.01 1.04 2.02 1.55 3.04 0-1.81.68-2.99 2.05-3.55.04 2.29.04 4.58-.06 6.87l-1.52-4.05-.41 3.89c-.61-.86-1.21-1.72-1.82-2.59l-.9 2.65c-.22-1.85-.44-3.7-.53-5.56l-2.14.27c-.11 1.9.1 3.65-.94 5.33-.15-1.62-.3-3.23-.46-4.84-.59-.54-1.19-1.07-1.8-1.59Z"/>
  </defs>
  <g stroke-width="10pt">
    <use xlink:href="#spotlight_svg__a" stroke="#000"/>
    <use xlink:href="#spotlight_svg__b" stroke="#fff"/>
    <use xlink:href="#spotlight_svg__c" stroke="#000"/>
    <use xlink:href="#spotlight_svg__d" stroke="#fff"/>
    <use xlink:href="#spotlight_svg__e" stroke="#fff"/>
    <use xlink:href="#spotlight_svg__f" stroke="#fff"/>
    <use xlink:href="#spotlight_svg__g" stroke="#000"/>
    <use xlink:href="#spotlight_svg__h" stroke="#fcc128"/>
    <use xlink:href="#spotlight_svg__i" stroke="#000"/>
    <use xlink:href="#spotlight_svg__j" stroke="#000"/>
    <use xlink:href="#spotlight_svg__k" stroke="#000"/>
    <use xlink:href="#spotlight_svg__l" stroke="#000"/>
    <use xlink:href="#spotlight_svg__m" stroke="#000"/>
    <use xlink:href="#spotlight_svg__n" stroke="#000"/>
    <use xlink:href="#spotlight_svg__o" stroke="#000"/>
    <use xlink:href="#spotlight_svg__p" stroke="#000"/>
    <use xlink:href="#spotlight_svg__q" stroke="#000"/>
    <use xlink:href="#spotlight_svg__r" stroke="#000"/>
    <use xlink:href="#spotlight_svg__s" stroke="#fcc128"/>
    <use xlink:href="#spotlight_svg__t" stroke="#fcc128"/>
    <use xlink:href="#spotlight_svg__u" stroke="#fcc128"/>
    <use xlink:href="#spotlight_svg__v" stroke="#fff"/>
    <use xlink:href="#spotlight_svg__w" stroke="#fff"/>
    <use xlink:href="#spotlight_svg__x" stroke="#000"/>
    <use xlink:href="#spotlight_svg__y" stroke="#fff"/>
    <use xlink:href="#spotlight_svg__z" stroke="#fff"/>
    <use xlink:href="#spotlight_svg__A" stroke="#000"/>
  </g>
  <use xlink:href="#spotlight_svg__a"/>
  <use xlink:href="#spotlight_svg__b" fill="#fff"/>
  <use xlink:href="#spotlight_svg__c"/>
  <use xlink:href="#spotlight_svg__d" fill="#fff"/>
  <use xlink:href="#spotlight_svg__e" fill="#fff"/>
  <use xlink:href="#spotlight_svg__f" fill="#fff"/>
  <use xlink:href="#spotlight_svg__g"/>
  <use xlink:href="#spotlight_svg__h" fill="#fcc128"/>
  <use xlink:href="#spotlight_svg__i"/>
  <use xlink:href="#spotlight_svg__j"/>
  <use xlink:href="#spotlight_svg__k"/>
  <use xlink:href="#spotlight_svg__l"/>
  <use xlink:href="#spotlight_svg__m"/>
  <use xlink:href="#spotlight_svg__n"/>
  <use xlink:href="#spotlight_svg__o"/>
  <use xlink:href="#spotlight_svg__p"/>
  <use xlink:href="#spotlight_svg__q"/>
  <use xlink:href="#spotlight_svg__r"/>
  <use xlink:href="#spotlight_svg__s" fill="#fcc128"/>
  <use xlink:href="#spotlight_svg__t" fill="#fcc128"/>
  <use xlink:href="#spotlight_svg__u" fill="#fcc128"/>
  <use xlink:href="#spotlight_svg__v" fill="#fff"/>
  <use xlink:href="#spotlight_svg__w" fill="#fff"/>
  <use xlink:href="#spotlight_svg__x"/>
  <use xlink:href="#spotlight_svg__y" fill="#fff"/>
  <use xlink:href="#spotlight_svg__z" fill="#fff"/>
  <use xlink:href="#spotlight_svg__A"/>
</svg>
