<svg xmlns="http://www.w3.org/2000/svg" fill="none" viewBox="0 0 130 24">
  <g clip-path="url(#worldchain_svg__a)">
    <g clip-path="url(#worldchain_svg__b)">
      <mask id="worldchain_svg__c" width="130" height="24" x="0" y="0" maskUnits="userSpaceOnUse" style="mask-type:luminance">
        <path fill="#fff" d="M129.925.925H0v22.15h129.925V.925Z"/>
      </mask>
      <g fill="#000" mask="url(#worldchain_svg__c)">
        <path d="M47.526 7.786A4.222 4.222 0 0 1 51.736 12a4.222 4.222 0 0 1-4.21 4.213A4.222 4.222 0 0 1 43.316 12a4.21 4.21 0 0 1 4.21-4.214Zm0-2.03c-3.438 0-6.238 2.803-6.238 6.244 0 3.44 2.8 6.243 6.238 6.243 3.437 0 6.237-2.803 6.237-6.243 0-3.46-2.8-6.243-6.237-6.243ZM107.95 7.786A4.222 4.222 0 0 1 112.16 12a4.222 4.222 0 0 1-4.21 4.213A4.222 4.222 0 0 1 103.74 12a4.222 4.222 0 0 1 4.21-4.214Zm0-2.03c-3.438 0-6.237 2.803-6.237 6.244 0 3.44 2.799 6.243 6.237 6.243 3.437 0 6.238-2.803 6.238-6.243a6.225 6.225 0 0 0-6.238-6.243ZM98.545 13.45a4.212 4.212 0 0 1-3.959 2.763A4.222 4.222 0 0 1 90.376 12a4.222 4.222 0 0 1 4.21-4.214c1.815 0 3.36 1.16 3.959 2.764h2.105a6.22 6.22 0 0 0-6.064-4.793c-3.437 0-6.237 2.802-6.237 6.243 0 3.44 2.8 6.243 6.237 6.243a6.22 6.22 0 0 0 6.064-4.794h-2.105ZM81.049 7.98c2.26 0 4.094 1.895 4.017 4.176-.078 2.184-1.932 3.865-4.113 3.865H78.73v-8.04h2.318Zm0-2.029h-4.345v12.1h4.345A6.043 6.043 0 0 0 87.093 12a6.043 6.043 0 0 0-6.044-6.05ZM117.703 5.97h-2.029v12.061h2.029V5.971ZM30.474 18.088l2.298-8.872 2.298 8.872h2.78L40.998 5.91h-2.085l-2.453 9.451-2.452-9.451h-2.472l-2.453 9.451-2.452-9.451h-2.086l3.148 12.177h2.78ZM121.757 9.45l6.141 8.582h2.027V5.97h-2.027v8.581l-6.141-8.6h-.155l-.019.019h-1.854v12.06h2.028V9.45ZM68.786 5.97h-2.028v12.061h8.459v-2.03h-6.43V5.972ZM62.859 13.063c1.236-.618 2.086-1.875 2.086-3.343 0-2.069-1.68-3.73-3.727-3.73h-5.91v12.06h2.086v-4.6h1.159a4.574 4.574 0 0 1 4.441 4.58h2.086a6.552 6.552 0 0 0-2.221-4.967Zm-5.465-1.7V8.056h3.824A1.64 1.64 0 0 1 62.858 9.7c0 .909-.734 1.663-1.642 1.663h-3.823ZM21.242 7.69a11.092 11.092 0 0 0-2.375-3.518 11.001 11.001 0 0 0-3.495-2.377c-1.371-.58-2.82-.87-4.307-.87-1.506 0-2.954.29-4.306.87a11.084 11.084 0 0 0-3.515 2.377A11.094 11.094 0 0 0 .87 7.69 10.88 10.88 0 0 0 0 12a11.018 11.018 0 0 0 3.244 7.828 10.716 10.716 0 0 0 3.515 2.358c1.371.58 2.82.87 4.306.87a10.99 10.99 0 0 0 7.821-3.247 11.018 11.018 0 0 0 3.244-7.828c0-1.489-.308-2.938-.888-4.291ZM7.396 10.956c.444-1.778 2.066-3.073 3.978-3.073h7.686c.502.947.811 1.99.927 3.073H7.397Zm12.591 2.088a8.87 8.87 0 0 1-.927 3.073h-7.686a4.125 4.125 0 0 1-3.978-3.073h12.591ZM4.712 5.64a8.92 8.92 0 0 1 6.353-2.629 8.92 8.92 0 0 1 6.354 2.629l.154.155h-6.199a6.13 6.13 0 0 0-4.383 1.816c-.927.928-1.526 2.088-1.72 3.344H2.145a8.924 8.924 0 0 1 2.568-5.315Zm6.353 15.347a8.92 8.92 0 0 1-6.353-2.63 8.977 8.977 0 0 1-2.568-5.314h3.128a6.274 6.274 0 0 0 1.719 3.343 6.13 6.13 0 0 0 4.383 1.817h6.2l-.155.155a8.92 8.92 0 0 1-6.354 2.629Z"/>
      </g>
    </g>
  </g>
  <defs>
    <clipPath id="worldchain_svg__a">
      <path fill="#fff" d="M0 0h130v24H0z"/>
    </clipPath>
    <clipPath id="worldchain_svg__b">
      <path fill="#fff" d="M0 .925h130v22.15H0z"/>
    </clipPath>
  </defs>
</svg>
