<svg xmlns="http://www.w3.org/2000/svg" fill="none" viewBox="0 0 500 100">
  <path fill="#fff" d="M0 0h500v100H0z"/>
  <path fill="#fff" d="m160.801 49.459 23.986-32.468h-18.608l-14.95 21.754-15.166-21.754h-19.469l23.664 33.225L115.304 84.2h18.5l16.134-22.944L165.964 84.2h19.576l-24.739-34.74ZM237.061 63.745h-.215L221.694 16.99h-25.398v67.316H212V34.74h.43l16.564 49.567h14.736l16.456-49.567h.431v49.567h16.779V16.991h-25.061l-15.274 46.754ZM288.582 16.883v14.178h23.614l-.058 53.138h16.887l.033-53.138h23.522V16.883h-63.998ZM396.895 16.883h-33.344V84.2h16.887V63.203h16.134c17.137 0 27.428-8.27 27.428-23.485 0-15.03-10.31-22.739-27.08-22.739l-.025-.096Zm-16.457 32.36V31.06h14.843c7.057 0 11.724 2.376 11.724 9.2 0 6.73-4.623 8.874-12.046 8.874l-14.521.108Z"/>
  <path fill="#FC4F37" d="M0 50C0 22.386 22.248 0 49.693 0 77.118 0 98.31 21.97 98.954 49.783c0 8.875-3.012 16.343-10.541 23.377-6.362 5.945-17.21 6.818-25.168 2.381-5.68-3.297-10.059-10.319-13.769-15.476L42.594 70.67H27.75l13.983-20.888L28.181 29.22h15.273l6.131 10.606 6.023-10.606H70.99L57.007 49.783s6.668 10.282 10.325 14.286c3.657 4.005 10.326 4.113 14.628-.216 4.73-4.76 5.79-8.55 5.809-14.07.073-21.364-16.792-38.528-38.077-38.528-21.266 0-38.506 17.347-38.506 38.745 0 21.398 17.24 38.745 38.507 38.745 2.941 0 5.76-.25 8.497-.866l2.366 10.93c-3.893.879-7.04 1.191-10.863 1.191C22.248 100 0 77.614 0 50Z"/>
</svg>
