<svg xmlns="http://www.w3.org/2000/svg" fill="none" viewBox="0 0 83 24">
  <g clip-path="url(#zero_svg__a)">
    <g clip-path="url(#zero_svg__b)">
      <mask id="zero_svg__c" width="83" height="24" x="0" y="0" maskUnits="userSpaceOnUse" style="mask-type:luminance">
        <path fill="#fff" d="M82.218 0H0v24h82.218V0Z"/>
      </mask>
      <g mask="url(#zero_svg__c)">
        <path fill="#06003C" d="M60.13 11.42c0 .158.127.284.284.284h2.121c1.542 0 2.253-.643 2.253-2.116s-.711-2.083-2.252-2.083h-2.122a.283.283 0 0 0-.283.284v3.632Zm-2.913 6.926V5.368c0-.157.127-.284.284-.284h5.255c2.98 0 4.979 1.558 4.979 4.504 0 1.978-.797 3.025-2.065 3.748a.284.284 0 0 0-.11.376l2.333 4.503a.284.284 0 0 1-.252.414H65.17a.48.48 0 0 1-.43-.264l-1.949-3.869a.735.735 0 0 0-.657-.404h-1.477a.525.525 0 0 0-.526.525v3.729a.284.284 0 0 1-.283.283H57.5a.284.284 0 0 1-.284-.283ZM42.787 5.084H32.532a.284.284 0 0 0-.283.284v1.888c0 .156.127.283.283.283h6.096c.17 0 .266.194.164.33l-6.568 8.74a.72.72 0 0 0-.145.433v1.304c0 .157.127.283.284.283h10.56a.284.284 0 0 0 .283-.283v-1.871a.284.284 0 0 0-.283-.284h-6.414a.206.206 0 0 1-.164-.33l6.579-8.653a.721.721 0 0 0 .147-.437V5.368a.284.284 0 0 0-.284-.284ZM45.571 18.346V5.368c0-.157.127-.284.284-.284h8.51c.157 0 .284.127.284.284v1.905a.284.284 0 0 1-.284.283h-5.614a.284.284 0 0 0-.284.284v2.531c0 .157.127.284.284.284h4.48c.156 0 .283.127.283.283v1.82a.284.284 0 0 1-.283.284h-4.48a.284.284 0 0 0-.284.284v2.548c0 .157.127.283.284.283h5.835c.156 0 .283.127.283.284v1.905a.284.284 0 0 1-.283.283h-8.731a.284.284 0 0 1-.284-.283ZM75.835 4.99c-4.54 0-6.335 2.76-6.335 6.823 0 4.064 1.796 6.96 6.335 6.96s6.334-2.896 6.334-6.96c0-4.063-1.795-6.823-6.334-6.823Zm0 11.378c-1.94 0-2.97-1.104-3.31-2.97a.252.252 0 0 1 .249-.298h6.091c.157 0 .276.142.248.296-.33 1.868-1.338 2.972-3.279 2.972Zm-3.09-5.655a.252.252 0 0 1-.25-.292c.306-1.943 1.338-3.027 3.34-3.027s3.01 1.085 3.308 3.028a.252.252 0 0 1-.25.29h-6.149Z"/>
        <mask id="zero_svg__d" width="24" height="24" x="0" y="0" maskUnits="userSpaceOnUse" style="mask-type:luminance">
          <path fill="#fff" d="M24 0H0v24h24V0Z"/>
        </mask>
        <g mask="url(#zero_svg__d)">
          <path fill="#06003C" d="M17.213 0H6.787A6.787 6.787 0 0 0 0 6.787v10.426A6.787 6.787 0 0 0 6.787 24h10.426A6.787 6.787 0 0 0 24 17.213V6.787A6.787 6.787 0 0 0 17.213 0Z"/>
          <path fill="#fff" d="M12.06 5.109c-4.555 0-6.357 2.783-6.357 6.882s1.802 7.019 6.357 7.019c4.554 0 6.356-2.92 6.356-7.019 0-4.098-1.802-6.882-6.356-6.882Zm0 11.655c-2.077 0-3.153-1.22-3.478-3.271a.254.254 0 0 1 .25-.296h6.424c.156 0 .274.14.25.295-.315 2.052-1.368 3.272-3.446 3.272Zm-3.255-5.791a.254.254 0 0 1-.25-.29c.287-2.134 1.365-3.328 3.505-3.328 2.14 0 3.193 1.194 3.473 3.329a.254.254 0 0 1-.25.289H8.804Z"/>
        </g>
      </g>
    </g>
  </g>
  <defs>
    <clipPath id="zero_svg__a">
      <path fill="#fff" d="M0 0h82.218v24H0z"/>
    </clipPath>
    <clipPath id="zero_svg__b">
      <path fill="#fff" d="M0 0h82.218v24H0z"/>
    </clipPath>
  </defs>
</svg>
