<svg xmlns="http://www.w3.org/2000/svg" fill="none" viewBox="0 0 80 24">
  <g clip-path="url(#zilliqa-dark_svg__a)">
    <g clip-path="url(#zilliqa-dark_svg__b)">
      <path fill="url(#zilliqa-dark_svg__c)" d="m13.536 11.47-9.298 4.583 9.298 4.397V24L0 17.59v-3.497l9.404-4.636L0 5.007v-3.55l13.536 6.41v3.603Z"/>
      <path fill="url(#zilliqa-dark_svg__d)" d="M0 1.457 3.576 0l13.537 6.41-3.577 1.458L0 1.457Z"/>
      <path fill="url(#zilliqa-dark_svg__e)" d="m13.536 11.47 3.577-1.457V6.411l-3.577 1.457v3.602Z"/>
      <path fill="url(#zilliqa-dark_svg__f)" d="M13.536 20.45v-7.099l3.577-1.642v10.834L13.536 24v-3.55Z"/>
      <path fill="url(#zilliqa-dark_svg__g)" fill-rule="evenodd" d="M71.148 16.081h4.826l1.174 2.728h1.888l-5.412-12-5.58 12h1.846l1.258-2.728Zm2.476-5.454 1.636 3.818h-3.398l1.762-3.818Zm-6.168 8.391h-2.14l-.88-.923a5.454 5.454 0 0 1-3.147.924 6 6 0 0 1-3.986-1.511 5.496 5.496 0 0 1-1.888-4.28 5.578 5.578 0 0 1 1.804-4.28 5.832 5.832 0 0 1 7.93-.167 5.748 5.748 0 0 1 .461 8.391l1.846 1.846Zm-4.699-4.657 1.637 1.595a3.734 3.734 0 0 0 1.09-2.77 4.112 4.112 0 0 0-1.216-3.062 4.238 4.238 0 0 0-5.958 0 4.278 4.278 0 0 0-1.175 3.104 3.944 3.944 0 0 0 1.217 2.98 4.112 4.112 0 0 0 2.895 1.216c.69.008 1.37-.166 1.972-.503l-2.644-2.56h2.182Zm-36.25 2.853h5.412v1.595h-8.224l5.539-9.692h-4.616V7.522h7.427l-5.539 9.692Zm9.104-9.692V18.81h-1.72V7.522h1.72Zm4.406 9.692V7.522h-1.679V18.81h4.993v-1.595h-3.314Zm6.629-9.692v9.692h3.314v1.595h-4.992V7.522h1.678Zm6.629 11.287V7.522h-1.678V18.81h1.678Z" clip-rule="evenodd"/>
    </g>
  </g>
  <defs>
    <linearGradient id="zilliqa-dark_svg__c" x1="13.547" x2="2.252" y1="24.138" y2="5.107" gradientUnits="userSpaceOnUse">
      <stop stop-color="#05707E"/>
      <stop offset=".52" stop-color="#2B9297"/>
      <stop offset="1" stop-color="#4DBBBA"/>
    </linearGradient>
    <linearGradient id="zilliqa-dark_svg__d" x1=".675" x2="16.779" y1="1.105" y2="6.879" gradientUnits="userSpaceOnUse">
      <stop stop-color="#05707E"/>
      <stop offset=".52" stop-color="#2B9297"/>
      <stop offset="1" stop-color="#4DBBBA"/>
    </linearGradient>
    <linearGradient id="zilliqa-dark_svg__e" x1="13.539" x2="17.115" y1="8.946" y2="8.946" gradientUnits="userSpaceOnUse">
      <stop stop-color="#05707E"/>
      <stop offset=".52" stop-color="#2B9297"/>
      <stop offset="1" stop-color="#4DBBBA"/>
    </linearGradient>
    <linearGradient id="zilliqa-dark_svg__f" x1="15.282" x2="15.364" y1="10.932" y2="23.968" gradientUnits="userSpaceOnUse">
      <stop stop-color="#05707E"/>
      <stop offset=".52" stop-color="#2B9297"/>
      <stop offset="1" stop-color="#4DBBBA"/>
    </linearGradient>
    <linearGradient id="zilliqa-dark_svg__g" x1="11.985" x2="112.338" y1="11.563" y2="13.69" gradientUnits="userSpaceOnUse">
      <stop stop-color="#05707E"/>
      <stop offset=".52" stop-color="#2B9297"/>
      <stop offset="1" stop-color="#4DBBBA"/>
    </linearGradient>
    <clipPath id="zilliqa-dark_svg__a">
      <path fill="#fff" d="M0 0h79.036v24H0z"/>
    </clipPath>
    <clipPath id="zilliqa-dark_svg__b">
      <path fill="#fff" d="M0 0h79.036v24H0z"/>
    </clipPath>
  </defs>
</svg>
