<svg xmlns="http://www.w3.org/2000/svg" fill="none" viewBox="0 0 30 30">
  <g clip-path="url(#ink-dark_svg__a)">
    <path fill="#F0EFFE" fill-rule="evenodd" d="M30 15c0-8.284-6.716-15-15-15C6.716 0 0 6.716 0 15c0 8.284 6.716 15 15 15 8.284 0 15-6.716 15-15ZM17.14 26.226c0 1.018-.834 1.845-2.02 1.869H14.978C7.756 28.084 1.905 22.225 1.905 15 1.905 7.768 7.768 1.905 15 1.905h.117c1.338.024 2.024.851 2.024 1.869 0 1.035-.916 1.797-1.885 1.797-.97 0-1.018 0-1.946.075-.929.074-1.889.836-1.889 1.869 0 1.038.844 1.875 1.889 1.875h8.233c1.042 0 1.886.836 1.886 1.869a1.877 1.877 0 0 1-1.886 1.869H8.861a1.88 1.88 0 0 0-1.888 1.875c0 1.033.844 1.87 1.888 1.87h6.395c1.041 0 1.885.835 1.885 1.871 0 1.033-.844 1.87-1.885 1.87H13.31a1.877 1.877 0 0 0-1.889 1.868c0 1.036.865 1.792 1.889 1.87.08.005.154.01.222.016.36.027.557.043.754.05.238.01.476.01 1 .01 1.041 0 1.855.766 1.855 1.798Z" clip-rule="evenodd"/>
  </g>
  <defs>
    <clipPath id="ink-dark_svg__a">
      <path fill="#fff" d="M0 0h30v30H0z"/>
    </clipPath>
  </defs>
</svg>
