<svg xmlns="http://www.w3.org/2000/svg" fill="none" viewBox="0 0 30 30">
  <g clip-path="url(#scroll-dark_svg__a)">
    <mask id="scroll-dark_svg__b" width="30" height="30" x="0" y="0" maskUnits="userSpaceOnUse" style="mask-type:luminance">
      <path fill="#fff" d="M30 0H0v30h30V0Z"/>
    </mask>
    <g mask="url(#scroll-dark_svg__b)">
      <mask id="scroll-dark_svg__c" width="30" height="30" x="0" y="0" maskUnits="userSpaceOnUse" style="mask-type:luminance">
        <path fill="#fff" d="M30 0H0v30h30V0Z"/>
      </mask>
      <g fill="#fff" mask="url(#scroll-dark_svg__c)">
        <path d="M3.736 11.604C2.588 10.52 1.779 9.114 1.779 7.43v-.178c.097-2.846 2.442-5.143 5.288-5.24h18.146c.469.017.857.356.857.841v15.348c.42.08.615.13 1.02.275.306.113.76.372.76.372V2.854C27.816 1.4 26.668.234 25.212.234H7.067C3.154.3 0 3.501 0 7.431c0 2.28 1.035 4.237 2.75 5.612.113.097.226.21.533.21.534 0 .906-.42.89-.89-.017-.387-.178-.533-.437-.76Z"/>
        <path d="M24.76 19.237H10.528c-.954 0-1.73.793-1.73 1.747v2.037c.032.938.84 1.763 1.779 1.763h1.05v-1.762h-1.05v-2.006h.582c1.795 0 3.121 1.666 3.121 3.461 0 1.585-1.44 3.607-3.849 3.445-2.15-.146-3.3-2.054-3.3-3.445V7.124c0-.776-.63-1.423-1.422-1.423H4.286V7.48h1.05v16.997c-.048 3.461 2.459 5.207 5.079 5.207l14.345.049a5.238 5.238 0 0 0 5.24-5.24c0-2.895-2.345-5.256-5.24-5.256Zm3.445 5.353c-.065 1.86-1.585 3.348-3.445 3.348l-9.979-.032a5.235 5.235 0 0 0 1.278-3.413c0-2.054-1.229-3.46-1.229-3.46h9.93a3.451 3.451 0 0 1 3.445 3.46v.097ZM21.04 7.787H10.206V6.024h10.836c.436 0 .776.356.776.776v.21a.776.776 0 0 1-.776.777Z"/>
        <path d="M21.04 16.148H10.206v-1.763h10.836c.436 0 .776.356.776.777v.21c0 .42-.356.776-.776.776ZM22.916 11.976H10.188v-1.763h12.728c.437 0 .776.356.776.776v.21c.017.42-.34.777-.776.777Z"/>
      </g>
    </g>
  </g>
  <defs>
    <clipPath id="scroll-dark_svg__a">
      <path fill="#fff" d="M0 0h30v30H0z"/>
    </clipPath>
  </defs>
</svg>
