<svg xmlns="http://www.w3.org/2000/svg" fill="none" viewBox="0 0 30 30">
  <g clip-path="url(#shape-dark_svg__a)">
    <g clip-path="url(#shape-dark_svg__b)">
      <path fill="#000" stroke="#fff" d="M29.5 15c0 8.008-6.492 14.5-14.5 14.5S.5 23.008.5 15 6.992.5 15 .5 29.5 6.992 29.5 15Z"/>
      <path fill="#fff" d="M5.462 17.25a2.783 2.783 0 0 1-.72-.137 2.145 2.145 0 0 1-.613-.314 1.384 1.384 0 0 1-.411-.478l.984-.383c.038.058.1.12.187.185a1.158 1.158 0 0 0 .702.228c.121 0 .237-.015.347-.046.11-.03.199-.077.267-.14a.322.322 0 0 0 .103-.248c0-.107-.04-.19-.122-.25a.87.87 0 0 0-.306-.135c-.122-.03-.241-.059-.356-.085a3.664 3.664 0 0 1-.843-.256 1.744 1.744 0 0 1-.626-.45.99.99 0 0 1-.237-.667c0-.287.084-.534.251-.743.167-.208.386-.37.655-.482.269-.113.56-.17.872-.17.38 0 .727.072 1.044.216.317.143.568.345.753.606l-.922.495a.754.754 0 0 0-.187-.193 1.131 1.131 0 0 0-.592-.215 1.403 1.403 0 0 0-.392.034.607.607 0 0 0-.285.148.37.37 0 0 0-.107.278c0 .11.048.192.143.246.096.053.211.095.347.124.135.029.265.06.39.095a5.1 5.1 0 0 1 .79.309c.247.121.445.27.595.447a.91.91 0 0 1 .215.635c0 .28-.092.526-.277.736-.185.21-.423.37-.714.48-.292.11-.604.154-.935.13ZM11.732 14.426v2.746h-1.06v-2.468a.892.892 0 0 0-.127-.467.943.943 0 0 0-.336-.334.905.905 0 0 0-.467-.124.926.926 0 0 0-.926.925v2.468h-1.06l-.004-6.517h1.06l.004 2.56a1.63 1.63 0 0 1 1.195-.51c.316 0 .604.079.864.233.261.155.469.362.624.622.155.259.232.548.232.866ZM15.616 12.828h1.06v4.344h-1.06l-.048-.538a1.413 1.413 0 0 1-.471.471c-.196.12-.427.18-.693.18-.322 0-.623-.06-.904-.182a2.351 2.351 0 0 1-1.421-2.15 2.228 2.228 0 0 1 .652-1.591c.205-.206.443-.366.712-.482.27-.116.56-.174.87-.174.286 0 .543.064.77.191.228.128.421.29.58.487l-.047-.556Zm-1.238 3.436c.226 0 .425-.056.6-.169.173-.113.31-.266.408-.458.098-.193.147-.405.147-.637 0-.235-.049-.448-.147-.64a1.164 1.164 0 0 0-.41-.46 1.08 1.08 0 0 0-.598-.168c-.223 0-.427.057-.61.171A1.268 1.268 0 0 0 13.165 15a1.269 1.269 0 0 0 .606 1.095c.184.113.386.17.606.17ZM18.17 19.345h-1.06v-6.517h1.06v.551c.142-.197.317-.356.524-.48.207-.123.45-.184.728-.184.318 0 .615.059.89.178a2.322 2.322 0 0 1 1.219 1.22c.117.276.176.571.176.887a2.266 2.266 0 0 1-.667 1.623 2.32 2.32 0 0 1-.728.493 2.225 2.225 0 0 1-.89.178c-.278 0-.521-.062-.728-.185a1.725 1.725 0 0 1-.524-.48v2.716Zm1.239-5.61c-.22 0-.417.058-.591.172-.174.115-.31.268-.409.459a1.365 1.365 0 0 0-.147.634c0 .232.049.444.148.636.098.193.234.347.408.461.174.114.37.172.59.172.224 0 .428-.057.613-.17a1.269 1.269 0 0 0 .608-1.1c0-.23-.054-.442-.164-.633a1.287 1.287 0 0 0-.441-.458 1.14 1.14 0 0 0-.615-.172ZM24.114 17.285c-.4 0-.764-.103-1.093-.308a2.308 2.308 0 0 1-1.08-1.981 2.329 2.329 0 0 1 .637-1.62c.199-.209.43-.373.693-.492.264-.119.545-.178.843-.178.34 0 .65.071.932.215.282.143.522.34.72.588a2.412 2.412 0 0 1 .49 1.851H23.08c.04.163.107.308.2.437a1.029 1.029 0 0 0 1.34.295c.152-.09.28-.215.38-.371l1.082.252c-.176.385-.44.7-.79.945-.35.245-.743.367-1.178.367Zm-1.069-2.72h2.138c-.032-.173-.1-.33-.202-.471a1.18 1.18 0 0 0-.38-.337.984.984 0 0 0-.487-.126.972.972 0 0 0-.482.124 1.169 1.169 0 0 0-.376.335c-.103.14-.173.299-.21.475Z"/>
    </g>
  </g>
  <defs>
    <clipPath id="shape-dark_svg__a">
      <path fill="#fff" d="M0 0h30v30H0z"/>
    </clipPath>
    <clipPath id="shape-dark_svg__b">
      <path fill="#fff" d="M0 0h30v30H0z"/>
    </clipPath>
  </defs>
</svg>
