<svg xmlns="http://www.w3.org/2000/svg" fill="none" viewBox="0 0 30 30">
  <g clip-path="url(#worldchain_svg__a)">
    <path fill="#000" d="M28.77 9.17a15.038 15.038 0 0 0-3.218-4.768 14.9 14.9 0 0 0-4.733-3.223A14.875 14.875 0 0 0 14.986 0c-2.04 0-4.001.393-5.832 1.179a15.01 15.01 0 0 0-4.76 3.223A15.04 15.04 0 0 0 1.177 9.17 14.76 14.76 0 0 0 0 15.013c0 2.018.392 3.983 1.177 5.843a15.042 15.042 0 0 0 3.217 4.768 14.516 14.516 0 0 0 4.76 3.197A14.875 14.875 0 0 0 14.986 30a14.875 14.875 0 0 0 10.593-4.402 15.04 15.04 0 0 0 3.217-4.768 14.948 14.948 0 0 0 1.177-5.843 14.75 14.75 0 0 0-1.204-5.817Zm-18.753 4.428c.601-2.41 2.799-4.166 5.388-4.166h10.41a11.501 11.501 0 0 1 1.255 4.166H10.017Zm17.053 2.83a12.037 12.037 0 0 1-1.256 4.166h-10.41c-2.588 0-4.76-1.782-5.387-4.166H27.07ZM6.382 6.393a12.076 12.076 0 0 1 8.604-3.563c3.243 0 6.303 1.257 8.605 3.563l.21.21h-8.396c-2.25 0-4.342.864-5.937 2.463-1.256 1.257-2.066 2.83-2.328 4.532H2.903a12.102 12.102 0 0 1 3.479-7.205Zm8.604 20.803a12.077 12.077 0 0 1-8.604-3.563 12.174 12.174 0 0 1-3.479-7.205H7.14a8.509 8.509 0 0 0 2.328 4.533 8.299 8.299 0 0 0 5.937 2.463H23.8l-.21.21a12.076 12.076 0 0 1-8.604 3.563Z"/>
  </g>
  <defs>
    <clipPath id="worldchain_svg__a">
      <path fill="#fff" d="M0 0h30v30H0z"/>
    </clipPath>
  </defs>
</svg>
