<svg xmlns="http://www.w3.org/2000/svg" fill="none" viewBox="0 0 32 32">
  <path fill="#FC4F37" d="M0 16C0 7.163 7.195 0 16.07 0 24.939 0 31.79 7.03 32 15.93c0 2.84-.974 5.23-3.409 7.481-2.057 1.902-5.565 2.182-8.139.762-1.837-1.055-3.252-3.302-4.452-4.952l-2.226 3.394h-4.8l4.522-6.684-4.383-6.58h4.94l1.982 3.394 1.948-3.394h4.973l-4.521 6.58s2.156 3.29 3.339 4.571c1.182 1.282 3.34 1.316 4.73-.07 1.53-1.522 1.872-2.735 1.879-4.501.024-6.837-5.43-12.33-12.313-12.33C9.192 3.602 3.617 9.154 3.617 16c0 6.847 5.575 12.398 12.453 12.398.95 0 1.863-.08 2.747-.277l.766 3.498A15.073 15.073 0 0 1 16.07 32C7.195 32 0 24.837 0 16Z"/>
</svg>
