<svg xmlns="http://www.w3.org/2000/svg" fill="none" viewBox="0 0 30 30">
  <g clip-path="url(#zero_svg__a)">
    <mask id="zero_svg__b" width="30" height="30" x="0" y="0" maskUnits="userSpaceOnUse" style="mask-type:luminance">
      <path fill="#fff" d="M30 0H0v30h30V0Z"/>
    </mask>
    <g mask="url(#zero_svg__b)">
      <path fill="#06003C" d="M21.517 0H8.482A8.483 8.483 0 0 0 0 8.483v13.034A8.483 8.483 0 0 0 8.483 30h13.034A8.483 8.483 0 0 0 30 21.517V8.482A8.483 8.483 0 0 0 21.517 0Z"/>
      <path fill="#fff" d="M15.075 6.386c-5.694 0-7.946 3.48-7.946 8.603 0 5.123 2.252 8.773 7.946 8.773 5.693 0 7.945-3.65 7.945-8.773 0-5.123-2.252-8.603-7.945-8.603Zm0 14.569c-2.597 0-3.942-1.524-4.348-4.09a.318.318 0 0 1 .313-.368h8.03c.195 0 .343.175.313.368-.395 2.565-1.71 4.09-4.307 4.09Zm-4.069-7.24a.318.318 0 0 1-.313-.362c.36-2.667 1.707-4.16 4.382-4.16 2.676 0 3.992 1.494 4.341 4.162a.318.318 0 0 1-.313.36h-8.097Z"/>
    </g>
  </g>
  <defs>
    <clipPath id="zero_svg__a">
      <path fill="#fff" d="M0 0h30v30H0z"/>
    </clipPath>
  </defs>
</svg>
